<svg viewBox="0 0 156 50" fill="none" xmlns="http://www.w3.org/2000/svg"><path d="M50.838 33.892a9.01 9.01 0 0 1-2.79-.402 6.72 6.72 0 0 1-2.374-1.414 1.83 1.83 0 0 1-.446-.566 1.492 1.492 0 0 1-.158-.64 1.306 1.306 0 0 1 .36-.922c.235-.265.572-.413.92-.402.272-.003.537.092.748.268a6.84 6.84 0 0 0 1.669 1.071 5.2 5.2 0 0 0 2.042.372 4.127 4.127 0 0 0 1.51-.268 3.022 3.022 0 0 0 1.109-.714c.264-.271.415-.642.417-1.027.013-.43-.131-.85-.403-1.176-.259-.327-.676-.595-1.223-.819a9.617 9.617 0 0 0-2.086-.52 8.903 8.903 0 0 1-2.1-.566 4.62 4.62 0 0 1-1.51-.968 3.789 3.789 0 0 1-.921-1.369 4.891 4.891 0 0 1-.316-1.771c0-.998.244-1.846.748-2.546a4.735 4.735 0 0 1 2-1.607 6.828 6.828 0 0 1 2.79-.55 7.778 7.778 0 0 1 2.675.446c.73.244 1.407.628 2 1.131.432.357.647.76.647 1.22-.005.346-.14.676-.374.923a1.185 1.185 0 0 1-.892.417 1.027 1.027 0 0 1-.604-.208 4.293 4.293 0 0 0-.95-.61 7.33 7.33 0 0 0-1.265-.477 4.316 4.316 0 0 0-1.237-.193 4.644 4.644 0 0 0-1.611.253 2.31 2.31 0 0 0-.993.684 1.779 1.779 0 0 0 .058 2.144c.31.332.696.577 1.122.714.574.198 1.16.357 1.755.476.79.143 1.568.341 2.33.596a5.3 5.3 0 0 1 1.669.878c.443.351.785.819.992 1.355a5.33 5.33 0 0 1 .331 1.98 4.143 4.143 0 0 1-.79 2.56 5.144 5.144 0 0 1-2.101 1.652c-.86.413-1.8.617-2.748.595ZM67.136 17.624c.351-.002.688.143.936.402.267.256.414.62.402.997V32.27c.006.38-.145.743-.417.997-.263.26-.614.404-.978.402a1.278 1.278 0 0 1-.993-.402 1.423 1.423 0 0 1-.374-.997V19.023a1.326 1.326 0 0 1 .403-.997c.275-.271.643-.416 1.021-.402Zm-.072 6.668h9.883v2.634h-9.883v-2.634Zm9.883-6.668c.371-.02.732.128.993.402.247.268.382.626.374.997V32.27c.01.374-.131.735-.389.997a1.372 1.372 0 0 1-1.035.402 1.285 1.285 0 0 1-.935-.402 1.325 1.325 0 0 1-.403-.997V19.023c-.006-.38.145-.743.417-.997.265-.258.614-.402.978-.402ZM102.553 25.646a9.444 9.444 0 0 1-.546 3.215 8.074 8.074 0 0 1-1.568 2.62 7.074 7.074 0 0 1-2.388 1.77c-.951.437-1.981.654-3.021.64a6.912 6.912 0 0 1-3.007-.64 7.51 7.51 0 0 1-2.388-1.77 8.388 8.388 0 0 1-1.568-2.62 9.09 9.09 0 0 1-.546-3.215 9.43 9.43 0 0 1 .546-3.215 8.056 8.056 0 0 1 1.568-2.62 7.069 7.069 0 0 1 2.388-1.771 7.42 7.42 0 0 1 6.028 0 7.344 7.344 0 0 1 2.388 1.771 8.388 8.388 0 0 1 1.568 2.62 9.088 9.088 0 0 1 .546 3.215Zm-2.877 0a6.31 6.31 0 0 0-.604-2.783 5.09 5.09 0 0 0-1.64-1.98 4.37 4.37 0 0 0-4.833 0 4.988 4.988 0 0 0-1.626 1.965 6.894 6.894 0 0 0 0 5.581 4.92 4.92 0 0 0 1.626 1.98 4.37 4.37 0 0 0 4.833 0 5.09 5.09 0 0 0 1.64-1.98 6.31 6.31 0 0 0 .604-2.783ZM118.161 17.623c.77 0 1.521.238 2.158.685a5.04 5.04 0 0 1 1.626 1.86c.421.804.634 1.706.618 2.62a5.35 5.35 0 0 1-.618 2.59 5.343 5.343 0 0 1-1.626 1.875 3.766 3.766 0 0 1-2.158.7h-4.071l.216-.417v4.748c.013.37-.117.728-.36.997-.238.271-.581.419-.935.402a1.134 1.134 0 0 1-.906-.402 1.483 1.483 0 0 1-.36-.997V19.037c-.014-.758.569-1.384 1.301-1.4h5.115v-.014Zm0 7.71a1.21 1.21 0 0 0 .82-.372c.909-.87 1.175-2.243.662-3.409a2.738 2.738 0 0 0-.662-.922 1.196 1.196 0 0 0-.82-.357h-4.114l.259-.417v5.85l-.245-.373h4.1Z" fill="#000"/><path d="M131.929 20.328c-.404 0-.75-.128-1.037-.386-.288-.257-.432-.62-.432-1.09 0-.425.147-.775.442-1.05a1.454 1.454 0 0 1 1.027-.412c.39 0 .709.125 1 .375.29.25.436.613.436 1.09 0 .476-.143.824-.426 1.084-.284.26-.62.39-1.011.39l.001-.001Zm1.437 3.105v8.686c0 .602-.138 1.057-.414 1.365a1.352 1.352 0 0 1-1.053.463c-.426 0-.771-.158-1.037-.473-.267-.316-.399-.767-.399-1.355V23.52c0-.593.132-1.041.399-1.343.266-.301.611-.451 1.037-.451.426 0 .777.15 1.053.45.276.301.414.72.414 1.255v.002ZM143.362 23.39v.362c.511-.696 1.069-1.208 1.676-1.536.607-.326 1.303-.49 2.092-.49.788 0 1.45.173 2.053.518a3.243 3.243 0 0 1 1.35 1.465c.192.368.315.764.373 1.19.056.425.085.968.085 1.63v5.591c0 .602-.133 1.057-.399 1.365a1.305 1.305 0 0 1-1.037.463c-.426 0-.784-.158-1.053-.473-.27-.316-.404-.767-.404-1.355v-5.008c0-.992-.132-1.75-.399-2.273-.266-.525-.796-.787-1.591-.787-.517 0-.989.159-1.415.479-.426.318-.738.757-.937 1.316-.142.448-.212 1.284-.212 2.51v3.765c0 .609-.137 1.066-.41 1.37-.274.304-.626.458-1.059.458-.433 0-.763-.158-1.032-.474-.27-.315-.404-.766-.404-1.354v-8.687c0-.573.121-1 .361-1.283.242-.283.571-.424.99-.424.255 0 .486.063.692.188.206.125.371.312.495.56.123.25.185.554.185.915v-.002ZM23.814 6.913c.214.435.098 1.447-.24 1.886-.403.521.41.863.801.326 1.126-1.543 1.067-3.065-.643-4.138a4.011 4.011 0 0 0-.29-.051l-1.985-.279c.473.274.92.592 1.328.959.418.376.776.783 1.03 1.297Z" fill="#D81223"/><path d="m18.751 12.401-1.232 1.013v4.415l3.159-1.534 3.75-.542.323-2.404-1.813-1.809-4.188.861h.001Zm5.046 1.818a.74.74 0 0 1-.726.752.74.74 0 0 1-.726-.752.74.74 0 0 1 .726-.75c.4 0 .726.336.726.75Z" fill="#B9B9B9"/><path d="M20.891 8.243c.22.628 1.527.02.638-1.33-.733-1.11-1.872-1.966-3.04-2.658-1.405-.183-2.59-.323-3.788-.448.553.137 1.106.304 1.708.52.974.35 3.69 1.658 4.481 3.915h.001Z" fill="#D81223"/><path d="M26.344 22c.283-.338.235-1.632.1-2.596-.393.234-.534.372-.542.379a.24.24 0 0 1-.039.034c-.023.463-.065.909-.134 1.292a20.459 20.459 0 0 1-.424 1.875c.359-.302.782-.68 1.038-.985l.001.001Z" fill="#B9B9B9"/><path d="M8.755 19.817a.239.239 0 0 1-.04-.033c-.006-.006-.148-.145-.541-.379-.135.964-.183 2.26.1 2.596.256.304.68.683 1.038.985a20.546 20.546 0 0 1-.423-1.875 10.483 10.483 0 0 1-.135-1.293h.001Z" fill="#fff"/><path d="M7.893 22.344c-.541-.645-.29-2.582-.192-3.199a13.89 13.89 0 0 0-.758-.356.264.264 0 0 1-.134-.342.25.25 0 0 1 .33-.14c.818.356 1.31.644 1.595.838-.022-1.473.098-2.922.105-3.01a.258.258 0 0 1 .19-.23l.649-.17-.33-2.444a.268.268 0 0 1 .076-.224l2-1.996a.247.247 0 0 1 .224-.068l4.378.9a.26.26 0 0 1 .108.05l1.03.847c.162-.144.725-.711.747-1.584.026-.955-.579-1.976-1.797-3.036-1.636-1.424-3.484-2.439-5.41-2.978-.438-.106-.868-.2-1.27-.282l-.085-.016C7.5 4.607 5.38 4.77 4.516 4.86c-.139.03-.285.047-.441.047h-.01c-.115 0-.234-.01-.361-.029a1.846 1.846 0 0 1-1.332-.88c-.327-.539-.4-1.21-.342-1.82-.733.813-.836 1.675-.774 2.3.124 1.244 1.028 2.537 2.15 3.074 1.521.728 1.53 1.951 1.497 2.308-.068.726-.51 1.314-1.1 1.465-.468.118-.904.052-1.262-.192-.329-.223-.592-.595-.786-1.109-.094.885.056 1.595.451 2.12.813 1.083 2.423 1.048 2.44 1.048l.533-.015-.326.437c-.036.048-.73.971-1.627 1.645.756-.065 1.51-.419 1.78-.557a1.94 1.94 0 0 1 .121-.064l.227.468-.11.06c-.258.15-.984.635-1.28 1.516-.16.477-.172 1.002-.04 1.569.35-1.538 1.5-1.803 1.514-1.806l.52-.11-.245.487s-.183.443-.14 1.969c.059 2.073 1.97 4.792 2.302 5.248l1.705.511-.013-.692c-.304-.238-1.213-.965-1.672-1.512h-.002v-.001ZM17.513 7.358c1.026.929 1.364.284 1.185.008-1.605-2.478-4.623-3.386-6.362-3.784-.943-.083-1.97-.166-3.167-.26-.907-.07-1.573.032-2.102.213 2.072.162 4.056.846 6.022 1.538 2.15.755 3.66 1.595 4.423 2.285ZM26.361 42.915c.122 0 .22-.102.22-.228a.224.224 0 0 0-.22-.228.224.224 0 0 0-.22.228c0 .126.099.228.22.228Z" fill="#D81223"/><path d="m11.12 31.516 2.983-.524-2.041-1.771-.941 2.295ZM20.872 30.991l2.82.592-1.02-2.032-1.8 1.44Z" fill="#fff"/><path d="m14.507 38.007-.02.064h.003l.017-.064Z" fill="#D81223"/><path d="m17.835 32.324-.486-.343-.414.331h-1.26l-1.782-.66 1.977 1.69h2.878l2.055-1.756-1.596.738h-1.372Z" fill="#fff"/><path d="m24.437 17.577-1.828-.042h-1.644l-2.496 1.454v3.417l1.813 1.55h2.75c.137 0 .248.113.253.254l.073 2.244a.263.263 0 0 1-.095.214l-3.899 3.217a.249.249 0 0 1-.158.057h-.743a.25.25 0 0 1-.179-.076l-.456-.472h-1.324l-.415.43a.248.248 0 0 1-.179.075h-.687l-.728.754 1.11.963H16.8l.329-.188a.245.245 0 0 1 .18-.069.25.25 0 0 1 .18.07l.328.187h1.193l2.697-2.339 2.305-2.15v-3.382s.685-2.934.643-4.483c-.026-.909-.133-1.417-.218-1.683v-.002h.001Zm-2.984 5.522c-1.226 0-2.22-1.028-2.22-2.297 0-1.267.995-2.296 2.22-2.296 1.226 0 2.22 1.029 2.22 2.296 0 1.269-.994 2.297-2.22 2.297ZM23.07 14.447c.123 0 .221-.102.221-.228a.224.224 0 0 0-.22-.228.224.224 0 0 0-.22.228c0 .126.098.228.22.228Z" fill="#B9B9B9"/><path d="M17.31 40.352c-.009 0-2.513-1.57-2.513-1.57l-1.834 1.148v.934h.627c.14 0 .253.117.253.262a.257.257 0 0 1-.253.262h-.627v1.037h.627c.14 0 .253.117.253.262a.257.257 0 0 1-.253.262h-.627v1.373h.627c.14 0 .253.117.253.262a.257.257 0 0 1-.253.261h-.627v.243l4.383 2.721 4.382-2.721v-.243h-.73a.257.257 0 0 1-.253-.261c0-.145.114-.262.253-.262h.73V42.95h-.73a.257.257 0 0 1-.253-.262c0-.145.114-.262.253-.262h.73v-1.037h-.73a.257.257 0 0 1-.253-.262c0-.145.114-.262.253-.262h.73v-.935l-1.857-1.178s-2.554 1.6-2.563 1.6h.001Zm2.739.594a.266.266 0 0 1-.09.358l-2.365 1.442v2.649a.257.257 0 0 1-.253.261.257.257 0 0 1-.253-.261V42.73l-2.338-1.426a.266.266 0 0 1-.089-.358.248.248 0 0 1 .346-.092l2.349 1.432 2.348-1.432a.248.248 0 0 1 .346.092h-.001ZM25.339 44.812c.122 0 .22-.102.22-.228a.224.224 0 0 0-.22-.229.224.224 0 0 0-.22.229c0 .125.098.228.22.228ZM30.52 39.644a.225.225 0 0 0-.221.228c0 .125.099.228.22.228.122 0 .22-.103.22-.228 0-.126-.098-.228-.22-.228Z" fill="#D81223"/><path d="m3.508 32.386-1.662 5.29 5.386-2.403a.244.244 0 0 1 .176-.009l2.1.68-3.44-4.94-2.56 1.383v-.001Z" fill="#B9B9B9"/><path d="M4.144 39.644a.225.225 0 0 0-.22.228c0 .125.1.228.22.228.122 0 .22-.103.22-.228 0-.126-.098-.228-.22-.228Z" fill="#D81223"/><path d="M17.342 33.864h-1.273l-1.109 4.41 2.348 1.497 2.309-1.472.005-.011c.008-.014.018-.026.028-.039l-1.101-4.385h-1.208Z" fill="#fff"/><path d="m13.812 34.028-3.556-2.143.5-2.811-1.946-2.367-.785.3 2.83 10.021 3.608 1.036-.65-4.036Z" fill="#B9B9B9"/><path d="m10.05 23.63.006.021c.003.009.006.017.007.025l.002.022.002.02.06 3.141 3.98 3.454.834-.863a.248.248 0 0 1 .18-.077h.686l.414-.429a.247.247 0 0 1 .18-.076h1.533a.25.25 0 0 1 .18.076l.455.472h.55l3.73-3.078-.06-1.86h-2.597a.248.248 0 0 1-.16-.06l-1.975-1.688a.266.266 0 0 1-.092-.202v-3.469l-.879-.925a.267.267 0 0 1-.073-.183v-4.597l.001-.011-1.146-.942-4.188-.861-1.813 1.809.342 2.544a.263.263 0 0 1-.188.29l-.692.182c-.05.696-.204 3.194.058 4.65.305 1.696.66 2.6.662 2.609l.002.006Zm3.52-.238c-.762 0-1.471-.39-1.898-1.044a.268.268 0 0 1 .068-.363.248.248 0 0 1 .35.07c.334.51.886.813 1.48.813.593 0 1.145-.305 1.477-.814a.248.248 0 0 1 .351-.07c.116.08.147.243.068.363a2.266 2.266 0 0 1-1.897 1.044Zm5.527 3.557a.267.267 0 0 1-.018.37c-.796.744-2.087.753-2.142.753a.257.257 0 0 1-.252-.262c0-.144.113-.261.252-.261.022 0 1.155-.013 1.802-.619a.246.246 0 0 1 .357.019h.001Zm-2.492-1.443c0 .28.22.506.488.506a.498.498 0 0 0 .488-.506c0-.144.114-.261.253-.261.14 0 .253.117.253.261 0 .567-.446 1.029-.994 1.029s-.994-.462-.994-1.029c0-.144.113-.261.253-.261s.253.117.253.261Zm-5.293-7.164s1.63.575 2.21.738c.735.207 1.889.374 2.493.452a.255.255 0 0 1 .248-.212c.14 0 .253.117.253.261v4.55c0 .069-.027.135-.074.185l-.854.883a.248.248 0 0 1-.357 0 .268.268 0 0 1 0-.37l.78-.807v-3.68l-1.123.122c.056.157.088.327.088.505 0 .398-.155.76-.406 1.022h-2.004a1.476 1.476 0 0 1-.405-1.022c0-.442.19-.837.491-1.104a7.626 7.626 0 0 0-1.16-.355c-.747-.162-1.816-.195-1.816-.195l1.636-.973Z" fill="#fff"/><path d="M8.301 42.915c.122 0 .22-.102.22-.228a.224.224 0 0 0-.22-.228.224.224 0 0 0-.22.228c0 .126.098.228.22.228ZM9.324 44.812c.122 0 .22-.102.22-.228a.224.224 0 0 0-.22-.229.224.224 0 0 0-.22.229c0 .125.099.228.22.228Z" fill="#D81223"/><path d="M31.558 32.122a.258.258 0 0 0-.123-.15l-3.998-2.158c-.842 2.199-1.93 5.036-2.593 6.763l2.426-.784 5.814 2.593a.244.244 0 0 0 .27-.047.265.265 0 0 0 .07-.274l-1.866-5.943Z" fill="#000"/><path d="M13.615 21.395c.231 0 .42-.195.42-.434a.427.427 0 0 0-.42-.435.427.427 0 0 0-.42.435c0 .24.188.434.42.434ZM21.921 20.696c-.14-.08-.29-.142-.438-.206a.974.974 0 0 1-.241-.139c-.144-.118-.116-.31.051-.386a.4.4 0 0 1 .148-.031c.194-.01.38.026.554.114.088.044.116.03.146-.065.031-.1.056-.201.086-.302.019-.068-.004-.111-.066-.14a1.372 1.372 0 0 0-.35-.108c-.159-.025-.159-.026-.16-.191 0-.155-.075-.232-.226-.232h-.098c-.105.003-.124.022-.127.132v.148c0 .146 0 .143-.136.195-.327.122-.528.352-.55.72-.018.327.146.547.405.707.16.1.336.157.505.234.066.03.13.065.184.112.163.14.132.37-.06.457a.583.583 0 0 1-.323.044 1.401 1.401 0 0 1-.494-.152c-.09-.05-.118-.036-.149.065-.026.088-.05.177-.073.266-.033.12-.02.149.09.204.14.07.29.107.445.132.12.02.123.025.125.154l.001.176c0 .073.034.116.108.118h.25c.068-.001.103-.04.103-.111 0-.08.004-.16 0-.24-.004-.082.03-.123.106-.145a.831.831 0 0 0 .184-1.53Z" fill="#fff"/><path d="M22.614 22.76c1.043-.668 1.365-2.083.72-3.162-.644-1.079-2.011-1.413-3.054-.746-1.043.667-1.366 2.082-.721 3.161.644 1.079 2.012 1.413 3.055.746ZM19.699 40.865l-2.348 1.433L15 40.865a.248.248 0 0 0-.345.093.266.266 0 0 0 .09.357l2.337 1.426v2.665c0 .145.113.262.253.262s.252-.117.252-.262v-2.648l2.366-1.443a.266.266 0 0 0 .09-.357.248.248 0 0 0-.346-.093ZM4.14 39.132a.74.74 0 0 0-.726.751.74.74 0 0 0 .726.751.74.74 0 0 0 .726-.751.74.74 0 0 0-.726-.751Zm0 .98a.225.225 0 0 1-.22-.229c0-.126.099-.228.22-.228.122 0 .22.102.22.228s-.098.228-.22.228ZM9.024 42.699a.74.74 0 0 0-.726-.752.74.74 0 0 0-.726.752.74.74 0 0 0 .726.75.74.74 0 0 0 .726-.75Zm-.726.227a.225.225 0 0 1-.22-.227c0-.126.099-.229.22-.229s.22.103.22.229c0 .125-.099.227-.22.227ZM9.32 43.844a.74.74 0 0 0-.726.75.74.74 0 0 0 .726.752.74.74 0 0 0 .726-.751.74.74 0 0 0-.726-.751Zm0 .979a.225.225 0 0 1-.22-.228c0-.126.099-.228.22-.228.122 0 .22.102.22.228s-.098.228-.22.228ZM30.515 39.132a.74.74 0 0 0-.726.751.74.74 0 0 0 .726.751.74.74 0 0 0 .726-.751.74.74 0 0 0-.726-.751Zm0 .98a.225.225 0 0 1-.22-.229c0-.126.099-.228.22-.228s.22.102.22.228-.099.228-.22.228ZM26.358 41.947a.74.74 0 0 0-.726.752.74.74 0 0 0 .726.75.74.74 0 0 0 .726-.75.74.74 0 0 0-.726-.752Zm0 .98a.225.225 0 0 1-.22-.228c0-.126.1-.229.22-.229.122 0 .22.103.22.229 0 .125-.098.227-.22.227ZM25.335 43.844a.74.74 0 0 0-.726.75.74.74 0 0 0 .726.752.74.74 0 0 0 .726-.751.74.74 0 0 0-.726-.751Zm0 .979a.225.225 0 0 1-.22-.228c0-.126.099-.228.22-.228s.22.102.22.228a.225.225 0 0 1-.22.228ZM16.682 27.822c0 .144.113.262.253.262.054 0 1.344-.009 2.141-.754a.269.269 0 0 0 .018-.37.248.248 0 0 0-.357-.018c-.647.606-1.781.618-1.801.618a.257.257 0 0 0-.253.262h-.001ZM16.095 25.517c0 .567.446 1.029.994 1.029s.994-.462.994-1.029a.257.257 0 0 0-.253-.261.257.257 0 0 0-.253.261c0 .28-.22.506-.488.506a.498.498 0 0 1-.488-.506.257.257 0 0 0-.253-.261.257.257 0 0 0-.253.261ZM12.65 19.878c-.301.267-.492.662-.492 1.104 0 .398.155.76.405 1.022h2.004c.251-.263.406-.624.406-1.022a1.51 1.51 0 0 0-.088-.505l1.122-.122v3.68l-.78.806c-.098.103-.098.268 0 .37a.248.248 0 0 0 .359 0l.853-.883a.265.265 0 0 0 .074-.185v-4.549a.257.257 0 0 0-.253-.261.254.254 0 0 0-.248.212c-.604-.078-1.758-.245-2.493-.452-.58-.163-2.21-.738-2.21-.738l-1.636.973s1.07.033 1.816.195c.424.092.816.22 1.16.355Z" fill="#000"/><path d="M15.463 22.36a.268.268 0 0 0-.068-.363.248.248 0 0 0-.35.07c-.333.51-.885.814-1.479.814a1.768 1.768 0 0 1-1.478-.813.247.247 0 0 0-.351-.07.267.267 0 0 0-.068.363 2.266 2.266 0 0 0 1.897 1.044c.761 0 1.47-.39 1.897-1.044v-.001ZM23.067 14.982a.74.74 0 0 0 .726-.751.74.74 0 0 0-.726-.752.74.74 0 0 0-.726.752.74.74 0 0 0 .726.75Zm0-.98c.122 0 .22.103.22.229 0 .125-.098.228-.22.228a.225.225 0 0 1-.22-.228c0-.126.099-.228.22-.228Z" fill="#000"/><path d="M29.218 39.62H26.6a.243.243 0 0 0-.123.034l-2.118 1.222h-2.13v-1.081a.263.263 0 0 0-.12-.223l-1.646-1.043 3.436-.987 3.24-10.614a.265.265 0 0 0-.155-.316l-1.841-.705-.064-.798 1.397-.283.045-.034c.048-.037 1.186-.917 2.39-3.512.543-1.17 1.743-3.879 1.755-3.906l.057-.13-.075-.12a5.76 5.76 0 0 0-.988-1.151c.711-.473 2.165-1.742 1.581-3.941l-.098-.372-.365.285c-.35.273-1.169.913-1.5.838-.03-.007-.054-.021-.078-.068-.113-.218-.047-.35.16-.703.452-.768 1.136-1.93-.51-5.224l-.286-.573-.18.617c-.25.85-.631 1.396-1.137 1.625-.43.194-.864.114-1.104.038.112-.51.283-1.727-.323-2.722-.45-.74-1.23-1.194-2.314-1.346-6.871-.97-8.743-1.183-14.303-1.618-2.011-.158-2.97.488-3.741 1.006-.363.243-.663.444-1.01.53-.2.021-.334.038-.386.045-.092 0-.188-.007-.29-.024-.435-.07-.765-.286-.98-.641-.324-.534-.377-1.367-.138-2.172L2.884.79l-.617.475C.85 2.354.66 3.646.749 4.536c.143 1.44 1.147 2.876 2.44 3.495.824.393 1.274 1.06 1.207 1.783-.047.497-.342.911-.718 1.006-.333.085-.623.044-.862-.12-.409-.278-.693-.905-.847-1.862L1.785 7.69l-.308 1.117c-.433 1.566-.323 2.799.327 3.663.659.875 1.698 1.139 2.324 1.216-.391.45-1.091 1.176-1.821 1.541l-.623.31.67.179c.51.134 1.07.076 1.566-.046a3.063 3.063 0 0 0-.436.835c-.303.898-.18 1.915.366 3.021l.52 1.056-.043-1.185c-.048-1.333.423-1.949.791-2.225-.046.342-.079.862-.057 1.637.07 2.429 2.36 5.492 2.457 5.62l.051.068 2.015.604.014.75-1.973.755a.264.264 0 0 0-.155.319l.67 2.374-4.96 2.677a.258.258 0 0 0-.124.15L1.19 38.07a.27.27 0 0 0 .07.274.246.246 0 0 0 .27.048l5.814-2.594 2.832.916c.02.007.04.01.06.01l.168.595a.257.257 0 0 0 .175.18l3.63 1.041-1.635 1.023a.263.263 0 0 0-.122.224v1.082h-2.159l-2.117-1.222a.243.243 0 0 0-.124-.033H5.435a.257.257 0 0 0-.252.261c0 .145.113.262.252.262h2.552l2.06 1.19c.044.04.101.065.166.065h2.239v1.038H9.626a.257.257 0 0 0-.253.262c0 .144.113.261.253.261h2.826v1.374h-1.804a.257.257 0 0 0-.253.261c0 .145.113.262.253.262h1.804v.39c0 .092.046.177.122.224l4.572 2.839a.25.25 0 0 0 .184.083h.02a.25.25 0 0 0 .184-.083l4.571-2.839a.264.264 0 0 0 .123-.224v-.39h1.775c.14 0 .253-.117.253-.262a.257.257 0 0 0-.253-.261h-1.775v-1.374h2.797c.14 0 .253-.117.253-.261a.257.257 0 0 0-.252-.262h-2.798v-1.038h2.21a.249.249 0 0 0 .167-.066l2.06-1.19h2.55c.14 0 .253-.117.253-.26a.257.257 0 0 0-.252-.262l.002.007Zm-10.473-6.268h-2.879l-1.976-1.689 1.781.66h1.262l.414-.33.485.34h1.372l1.597-.736-2.055 1.755Zm.903 4.908a.22.22 0 0 0-.028.038l-.005.012-2.309 1.472-2.348-1.498.327-1.3 1.942 1.189a.246.246 0 0 0 .256.001l1.864-1.12.303 1.205h-.002Zm-3.923-3.03 1.502.919a.247.247 0 0 0 .255 0l1.422-.854.31 1.233-1.857 1.117-1.94-1.188.309-1.228h-.001Zm1.63.39-1.498-.917.209-.829h2.481l.224.895-1.415.85v.001Zm-2.853 2.397-.016.065h-.003l.02-.065Zm-3.385-6.49.941-2.297L14.1 31l-2.983.525ZM20.87 31l1.8-1.44 1.02 2.031-2.821-.591Zm3.14-7.25v3.383l-2.305 2.15-2.697 2.34h-1.193l-.329-.189a.245.245 0 0 0-.18-.069.249.249 0 0 0-.18.07l-.328.188h-1.193l-1.11-.964.727-.753h.687a.25.25 0 0 0 .179-.077l.415-.429h1.324l.456.472c.048.05.111.076.18.076h.742c.058 0 .114-.02.158-.057l3.9-3.217a.264.264 0 0 0 .094-.214l-.073-2.244a.257.257 0 0 0-.253-.253h-2.75l-1.813-1.55v-3.418l2.496-1.454h1.644l1.828.042c.085.266.192.774.217 1.683.043 1.549-.642 4.483-.642 4.483v.002Zm.416-7.988-3.75.542-3.16 1.533v-4.415l1.233-1.012 4.188-.862 1.813 1.81-.323 2.404h-.001Zm1.301 5.356c.069-.383.111-.828.135-1.292a.244.244 0 0 0 .04-.033c.006-.006.148-.146.541-.379.135.964.183 2.259-.1 2.596-.256.304-.68.683-1.038.985.125-.449.279-1.074.423-1.876ZM23.44 4.946c.1.014.196.031.29.05 1.71 1.074 1.769 2.597.643 4.139-.392.537-1.204.195-.802-.326.34-.438.454-1.45.241-1.886-.253-.514-.612-.92-1.03-1.297a7.923 7.923 0 0 0-1.327-.959l1.985.279Zm-4.952-.68c1.167.69 2.307 1.547 3.04 2.658.889 1.348-.418 1.956-.638 1.329-.79-2.257-3.508-3.565-4.482-3.914a17.172 17.172 0 0 0-1.707-.521c1.198.124 2.382.266 3.788.449v-.001Zm-9.32-.935c1.198.094 2.224.177 3.167.26 1.738.397 4.756 1.305 6.362 3.784.179.276-.159.92-1.185-.008-.763-.69-2.272-1.53-4.423-2.285-1.966-.69-3.95-1.375-6.023-1.538.53-.181 1.195-.284 2.103-.213h-.001ZM7.869 24.046c-.331-.456-2.242-3.175-2.301-5.248-.044-1.526.14-1.97.14-1.97l.245-.487-.52.111c-.015.003-1.164.268-1.514 1.806-.133-.567-.12-1.092.04-1.57.295-.88 1.021-1.367 1.28-1.515l.11-.06-.227-.468c-.01.004-.053.025-.121.064-.27.138-1.025.492-1.78.557.897-.675 1.592-1.597 1.627-1.645l.326-.437-.534.015c-.018 0-1.627.035-2.44-1.048-.395-.526-.544-1.237-.45-2.12.194.514.457.885.785 1.11.358.243.794.309 1.262.19.59-.149 1.033-.738 1.1-1.464.034-.358.025-1.58-1.496-2.308-1.122-.537-2.026-1.83-2.15-3.074-.063-.626.04-1.487.774-2.3-.057.61.016 1.281.342 1.82.293.483.753.788 1.331.88.128.02.247.03.362.03h.01c.156 0 .303-.018.44-.048.865-.089 2.985-.252 4.834.045.028.004.056.01.085.016.402.081.832.177 1.27.282 1.926.54 3.774 1.553 5.41 2.978 1.217 1.059 1.821 2.08 1.797 3.036-.022.873-.586 1.44-.747 1.584l-1.03-.846a.238.238 0 0 0-.109-.052l-4.377-.9a.247.247 0 0 0-.225.069l-2 1.996a.266.266 0 0 0-.074.224l.328 2.444-.648.17a.26.26 0 0 0-.19.23c-.007.09-.128 1.537-.105 3.01-.285-.194-.778-.482-1.595-.838a.249.249 0 0 0-.33.14.264.264 0 0 0 .134.342c.297.13.546.248.757.357-.097.616-.35 2.553.193 3.198.459.547 1.368 1.274 1.672 1.512l.013.692-1.706-.511h.002Zm1.44-1.05c-.359-.303-.782-.682-1.038-.986-.283-.338-.235-1.633-.1-2.596.393.233.535.371.542.379a.239.239 0 0 0 .039.033c.023.464.065.91.135 1.292.144.802.298 1.428.423 1.876v.001Zm.074-1.973c-.262-1.455-.108-3.953-.058-4.65l.692-.181a.26.26 0 0 0 .188-.29l-.342-2.545 1.813-1.809 4.188.861 1.146.942v4.609c0 .069.025.135.072.183l.879.925v3.468c0 .078.033.152.092.202l1.974 1.689c.046.038.102.06.161.06h2.597l.06 1.86-3.73 3.077h-.55l-.456-.471a.247.247 0 0 0-.179-.077h-1.534a.249.249 0 0 0-.179.076l-.414.43h-.687a.249.249 0 0 0-.179.076l-.834.863-3.98-3.454-.06-3.142a.119.119 0 0 0-.003-.018.148.148 0 0 0-.002-.022c0-.009-.004-.017-.006-.025l-.006-.022c0-.003 0-.005-.002-.007-.004-.01-.357-.913-.662-2.609h.001v.001Zm-1.977 14.25a.244.244 0 0 0-.176.01l-5.386 2.403 1.662-5.29 2.56-1.382 3.44 4.939-2.1-.68Zm3.446 1.765L8.023 27.017l.785-.3 1.946 2.366-.5 2.812 3.556 2.142.651 4.037-3.608-1.036Zm10.874 3.836h-.73a.257.257 0 0 0-.253.262c0 .144.114.261.253.261h.73v1.038h-.73a.257.257 0 0 0-.253.262c0 .144.114.261.253.261h.73v1.374h-.73a.257.257 0 0 0-.253.262c0 .144.114.261.253.261h.73v.243l-4.382 2.721-4.383-2.721v-.243h.627c.14 0 .253-.117.253-.261a.257.257 0 0 0-.253-.262h-.627v-1.374h.627c.14 0 .253-.117.253-.261a.257.257 0 0 0-.253-.262h-.627v-1.038h.627c.14 0 .253-.117.253-.261a.257.257 0 0 0-.253-.262h-.627v-.934l1.834-1.148s2.505 1.57 2.512 1.57c.009 0 2.563-1.6 2.563-1.6l1.857 1.178v.935Z" fill="#000"/><path d="m33.422 38.077-1.866-5.943a.257.257 0 0 0-.124-.15l-3.998-2.158-2.592 6.763 2.425-.785 5.814 2.594c.033.015.067.02.1.02a.244.244 0 0 0 .17-.067.265.265 0 0 0 .07-.274h.001Z" fill="#000"/><path d="M13.612 21.407c.232 0 .42-.195.42-.435a.427.427 0 0 0-.42-.434.427.427 0 0 0-.42.434c0 .24.188.434.42.434ZM21.918 20.708c-.141-.08-.29-.142-.44-.206a.976.976 0 0 1-.24-.14c-.144-.117-.115-.309.052-.385a.4.4 0 0 1 .147-.032c.194-.01.38.026.554.114.088.044.117.03.146-.065.031-.099.057-.2.086-.3.02-.069-.004-.113-.066-.141a1.374 1.374 0 0 0-.35-.108c-.159-.025-.159-.026-.16-.191 0-.155-.075-.233-.226-.233h-.098c-.105.004-.123.023-.126.132-.002.05 0 .099 0 .149 0 .145-.002.143-.137.195-.327.122-.528.352-.549.72-.02.327.146.547.405.707.16.099.335.157.504.234.066.03.13.065.184.112.163.139.133.37-.06.457a.583.583 0 0 1-.323.044 1.401 1.401 0 0 1-.494-.153c-.09-.049-.118-.035-.148.066-.027.088-.05.177-.074.266-.032.12-.02.149.09.204.14.07.291.107.445.132.12.02.123.025.125.153l.001.176c0 .074.035.116.108.119h.25c.068-.002.103-.04.103-.111 0-.08.004-.16 0-.241-.004-.082.03-.122.107-.144a.83.83 0 0 0 .184-1.53Z" fill="#fff"/></svg>