<?xml version="1.0" encoding="UTF-8" standalone="no"?>
<!DOCTYPE svg PUBLIC "-//W3C//DTD SVG 1.1//EN" "http://www.w3.org/Graphics/SVG/1.1/DTD/svg11.dtd">
<svg width="100%" height="100%" viewBox="0 0 48 48" version="1.1" xmlns="http://www.w3.org/2000/svg" xmlns:xlink="http://www.w3.org/1999/xlink" xml:space="preserve" xmlns:serif="http://www.serif.com/" style="fill-rule:evenodd;clip-rule:evenodd;stroke-linejoin:round;stroke-miterlimit:2;">
    <g transform="matrix(1,0,0,1,6.71633,-0.79)">
        <path d="M18.751,12.401L17.519,13.414L17.519,17.829L20.678,16.295L24.428,15.753L24.751,13.349L22.938,11.54L18.75,12.401L18.751,12.401ZM23.797,14.219C23.804,14.624 23.476,14.963 23.071,14.971C22.666,14.963 22.338,14.624 22.345,14.219C22.339,13.815 22.667,13.477 23.071,13.469C23.471,13.469 23.797,13.805 23.797,14.219Z" style="fill:rgb(185,185,185);fill-rule:nonzero;"/>
    </g>
    <g transform="matrix(1,0,0,1,6.71633,-0.79)">
        <path d="M20.891,8.243C21.111,8.871 22.418,8.263 21.529,6.913C20.796,5.803 19.657,4.947 18.489,4.255C17.084,4.072 15.899,3.932 14.701,3.807C15.254,3.944 15.807,4.111 16.409,4.327C17.383,4.677 20.099,5.985 20.89,8.242L20.891,8.242L20.891,8.243Z" style="fill:rgb(216,18,35);fill-rule:nonzero;"/>
    </g>
    <g transform="matrix(1,0,0,1,6.71633,-0.79)">
        <path d="M26.344,22C26.627,21.662 26.579,20.368 26.444,19.404C26.051,19.638 25.91,19.776 25.902,19.783C25.89,19.796 25.877,19.807 25.863,19.817C25.84,20.28 25.798,20.726 25.729,21.109C25.617,21.74 25.476,22.366 25.305,22.984C25.664,22.682 26.087,22.304 26.343,21.999L26.344,22Z" style="fill:rgb(185,185,185);fill-rule:nonzero;"/>
    </g>
    <g transform="matrix(1,0,0,1,6.71633,-0.79)">
        <path d="M8.755,19.817C8.741,19.807 8.727,19.796 8.715,19.784C8.709,19.778 8.567,19.639 8.174,19.405C8.039,20.369 7.991,21.665 8.274,22.001C8.53,22.305 8.954,22.684 9.312,22.986C9.142,22.368 9.001,21.742 8.889,21.111C8.817,20.683 8.772,20.251 8.754,19.818L8.755,19.818L8.755,19.817Z" style="fill:white;fill-rule:nonzero;"/>
    </g>
    <g transform="matrix(1,0,0,1,6.71633,-0.79)">
        <path d="M7.893,22.344C7.352,21.699 7.603,19.762 7.701,19.145C7.452,19.019 7.199,18.9 6.943,18.789C6.814,18.73 6.754,18.578 6.809,18.447C6.846,18.351 6.939,18.287 7.042,18.287C7.075,18.287 7.108,18.294 7.139,18.307C7.957,18.663 8.449,18.951 8.734,19.145C8.712,17.672 8.832,16.223 8.839,16.135C8.847,16.026 8.924,15.933 9.029,15.905L9.678,15.735L9.348,13.291C9.337,13.209 9.365,13.126 9.424,13.067L11.424,11.071C11.482,11.012 11.567,10.987 11.648,11.003L16.026,11.903C16.065,11.911 16.102,11.928 16.134,11.953L17.164,12.8C17.326,12.656 17.889,12.089 17.911,11.216C17.937,10.261 17.332,9.24 16.114,8.18C14.478,6.756 12.63,5.741 10.704,5.202C10.266,5.096 9.836,5.002 9.434,4.92L9.349,4.904C7.5,4.607 5.38,4.77 4.516,4.86C4.377,4.89 4.231,4.907 4.075,4.907L4.065,4.907C3.95,4.907 3.831,4.897 3.704,4.878C3.15,4.802 2.659,4.478 2.372,3.998C2.045,3.459 1.972,2.788 2.03,2.178C1.297,2.991 1.194,3.853 1.256,4.478C1.38,5.722 2.284,7.015 3.406,7.552C4.927,8.28 4.936,9.503 4.903,9.86C4.835,10.586 4.393,11.174 3.803,11.325C3.335,11.443 2.899,11.377 2.541,11.133C2.212,10.91 1.949,10.538 1.755,10.024C1.661,10.909 1.811,11.619 2.206,12.144C3.019,13.227 4.629,13.192 4.646,13.192L5.179,13.177L4.853,13.614C4.817,13.662 4.123,14.585 3.226,15.259C3.982,15.194 4.736,14.84 5.006,14.702C5.046,14.679 5.086,14.658 5.127,14.638L5.354,15.106L5.244,15.166C4.986,15.316 4.26,15.801 3.964,16.682C3.804,17.159 3.792,17.684 3.924,18.251C4.274,16.713 5.424,16.448 5.438,16.445L5.958,16.335L5.713,16.822C5.713,16.822 5.53,17.265 5.573,18.791C5.632,20.864 7.543,23.583 7.875,24.039L9.58,24.55L9.567,23.858C9.263,23.62 8.354,22.893 7.895,22.346L7.893,22.346L7.893,22.344ZM17.513,7.358C18.539,8.287 18.877,7.642 18.698,7.366C17.093,4.888 14.075,3.98 12.336,3.582C11.393,3.499 10.366,3.416 9.169,3.322C8.262,3.252 7.596,3.354 7.067,3.535C9.139,3.697 11.123,4.381 13.089,5.073C15.239,5.828 16.749,6.668 17.512,7.358L17.513,7.358ZM26.361,42.915C26.483,42.915 26.581,42.813 26.581,42.687C26.581,42.686 26.581,42.684 26.581,42.683C26.581,42.562 26.482,42.461 26.361,42.459C26.24,42.461 26.141,42.562 26.141,42.683C26.141,42.684 26.141,42.686 26.141,42.687C26.141,42.813 26.24,42.915 26.361,42.915Z" style="fill:rgb(216,18,35);fill-rule:nonzero;"/>
    </g>
    <g transform="matrix(1,0,0,1,6.71633,-0.79)">
        <path d="M11.12,31.516L14.103,30.992L12.062,29.221L11.121,31.516L11.12,31.516ZM20.872,30.991L23.692,31.583L22.672,29.551L20.872,30.991Z" style="fill:white;fill-rule:nonzero;"/>
    </g>
    <g transform="matrix(1,0,0,1,6.71633,-0.79)">
        <path d="M14.507,38.007L14.487,38.071L14.49,38.071L14.507,38.007Z" style="fill:rgb(216,18,35);fill-rule:nonzero;"/>
    </g>
    <g transform="matrix(1,0,0,1,6.71633,-0.79)">
        <path d="M17.835,32.324L17.349,31.981L16.935,32.312L15.675,32.312L13.893,31.652L15.87,33.342L18.748,33.342L20.803,31.586L19.207,32.324L17.835,32.324Z" style="fill:white;fill-rule:nonzero;"/>
    </g>
    <g transform="matrix(1,0,0,1,6.71633,-0.79)">
        <path d="M24.437,17.577L22.609,17.535L20.965,17.535L18.469,18.989L18.469,22.406L20.282,23.956L23.032,23.956C23.169,23.956 23.28,24.069 23.285,24.21L23.358,26.454C23.362,26.536 23.326,26.616 23.263,26.668L19.364,29.885C19.32,29.922 19.264,29.942 19.206,29.942L18.463,29.942C18.396,29.942 18.331,29.914 18.284,29.866L17.828,29.394L16.504,29.394L16.089,29.824C16.042,29.872 15.977,29.899 15.91,29.899L15.223,29.899L14.495,30.653L15.605,31.616L16.8,31.616L17.129,31.428C17.177,31.381 17.242,31.356 17.309,31.359C17.376,31.357 17.441,31.383 17.489,31.429L17.817,31.616L19.01,31.616L21.707,29.277L24.012,27.127L24.012,23.745C24.012,23.745 24.697,20.811 24.655,19.262C24.629,18.353 24.522,17.845 24.437,17.579L24.437,17.577L24.438,17.577L24.437,17.577ZM21.453,23.099C20.227,23.099 19.233,22.071 19.233,20.802C19.233,19.535 20.228,18.506 21.453,18.506C22.679,18.506 23.673,19.535 23.673,20.802C23.673,22.071 22.679,23.099 21.453,23.099ZM23.07,14.447C23.193,14.447 23.291,14.345 23.291,14.219C23.291,14.218 23.291,14.216 23.291,14.215C23.291,14.094 23.192,13.993 23.071,13.991C22.95,13.993 22.851,14.094 22.851,14.215C22.851,14.216 22.851,14.218 22.851,14.219C22.851,14.345 22.949,14.447 23.071,14.447L23.07,14.447Z" style="fill:rgb(185,185,185);fill-rule:nonzero;"/>
    </g>
    <g transform="matrix(1,0,0,1,6.71633,-0.79)">
        <path d="M17.31,40.352C17.301,40.352 14.797,38.782 14.797,38.782L12.963,39.93L12.963,40.864L13.59,40.864C13.73,40.864 13.843,40.981 13.843,41.126C13.843,41.128 13.843,41.129 13.843,41.131C13.843,41.271 13.729,41.386 13.59,41.388L12.963,41.388L12.963,42.425L13.59,42.425C13.73,42.425 13.843,42.542 13.843,42.687C13.843,42.689 13.843,42.69 13.843,42.692C13.843,42.832 13.729,42.947 13.59,42.949L12.963,42.949L12.963,44.322L13.59,44.322C13.73,44.322 13.843,44.439 13.843,44.584C13.843,44.585 13.843,44.587 13.843,44.588C13.843,44.728 13.729,44.843 13.59,44.845L12.963,44.845L12.963,45.088L17.346,47.809L21.728,45.088L21.728,44.845L20.998,44.845C20.859,44.843 20.745,44.728 20.745,44.588C20.745,44.587 20.745,44.585 20.745,44.584C20.745,44.439 20.859,44.322 20.998,44.322L21.728,44.322L21.728,42.95L20.998,42.95C20.859,42.948 20.745,42.833 20.745,42.693C20.745,42.691 20.745,42.69 20.745,42.688C20.745,42.543 20.859,42.426 20.998,42.426L21.728,42.426L21.728,41.389L20.998,41.389C20.859,41.387 20.745,41.272 20.745,41.132C20.745,41.13 20.745,41.129 20.745,41.127C20.745,40.982 20.859,40.865 20.998,40.865L21.728,40.865L21.728,39.93L19.871,38.752C19.871,38.752 17.317,40.352 17.308,40.352L17.31,40.352ZM20.049,40.946C20.12,41.069 20.08,41.229 19.959,41.304L17.594,42.746L17.594,45.395C17.594,45.396 17.594,45.398 17.594,45.399C17.594,45.539 17.48,45.654 17.341,45.656C17.202,45.654 17.088,45.539 17.088,45.399C17.088,45.398 17.088,45.396 17.088,45.395L17.088,42.73L14.75,41.304C14.63,41.228 14.59,41.069 14.661,40.946C14.705,40.867 14.788,40.818 14.878,40.818C14.924,40.818 14.968,40.83 15.007,40.854L17.356,42.286L19.704,40.854C19.743,40.83 19.787,40.818 19.833,40.818C19.923,40.818 20.006,40.867 20.05,40.946L20.049,40.946ZM25.339,44.812C25.461,44.812 25.559,44.71 25.559,44.584C25.559,44.582 25.559,44.581 25.559,44.579C25.559,44.458 25.46,44.357 25.339,44.355C25.218,44.357 25.119,44.458 25.119,44.579C25.119,44.581 25.119,44.582 25.119,44.584C25.119,44.709 25.217,44.812 25.339,44.812ZM30.52,39.644C30.397,39.646 30.297,39.749 30.299,39.872C30.299,39.997 30.398,40.1 30.519,40.1C30.641,40.1 30.739,39.997 30.739,39.872C30.739,39.746 30.641,39.644 30.519,39.644L30.52,39.644Z" style="fill:rgb(216,18,35);fill-rule:nonzero;"/>
    </g>
    <g transform="matrix(1,0,0,1,6.71633,-0.79)">
        <path d="M3.508,32.386L1.846,37.676L7.232,35.273C7.287,35.248 7.35,35.245 7.408,35.264L9.508,35.944L6.068,31.004L3.508,32.387L3.508,32.386Z" style="fill:rgb(185,185,185);fill-rule:nonzero;"/>
    </g>
    <g transform="matrix(1,0,0,1,6.71633,-0.79)">
        <path d="M4.144,39.644C4.021,39.647 3.922,39.749 3.924,39.872C3.924,39.997 4.024,40.1 4.144,40.1C4.266,40.1 4.364,39.997 4.364,39.872C4.364,39.746 4.266,39.644 4.144,39.644Z" style="fill:rgb(216,18,35);fill-rule:nonzero;"/>
    </g>
    <g transform="matrix(1,0,0,1,6.71633,-0.79)">
        <path d="M17.342,33.864L16.069,33.864L14.96,38.274L17.308,39.771L19.617,38.299L19.622,38.288C19.63,38.274 19.64,38.262 19.65,38.249L18.549,33.864L17.341,33.864L17.342,33.864Z" style="fill:white;fill-rule:nonzero;"/>
    </g>
    <g transform="matrix(1,0,0,1,6.71633,-0.79)">
        <path d="M13.812,34.028L10.256,31.885L10.756,29.074L8.81,26.707L8.025,27.007L10.855,37.028L14.463,38.064L13.813,34.028L13.812,34.028Z" style="fill:rgb(185,185,185);fill-rule:nonzero;"/>
    </g>
    <g transform="matrix(1,0,0,1,6.71633,-0.79)">
        <path d="M10.05,23.63L10.056,23.651C10.059,23.66 10.062,23.668 10.063,23.676L10.065,23.698L10.067,23.718L10.127,26.859L14.107,30.313L14.941,29.45C14.988,29.401 15.053,29.373 15.121,29.373L15.807,29.373L16.221,28.944C16.268,28.895 16.333,28.868 16.401,28.868L17.934,28.868C18.002,28.868 18.067,28.895 18.114,28.944L18.569,29.416L19.119,29.416L22.849,26.338L22.789,24.478L20.192,24.478C20.133,24.478 20.077,24.456 20.032,24.418L18.057,22.73C17.998,22.679 17.965,22.605 17.965,22.528L17.965,19.059L17.086,18.134C17.039,18.085 17.013,18.019 17.013,17.951L17.013,13.354L17.014,13.343L15.868,12.401L11.68,11.54L9.867,13.349L10.209,15.893C10.227,16.022 10.147,16.147 10.021,16.183L9.329,16.365C9.279,17.061 9.125,19.559 9.387,21.015C9.692,22.711 10.047,23.615 10.049,23.624L10.051,23.63L10.05,23.63ZM13.57,23.392C12.808,23.392 12.099,23.002 11.672,22.348C11.595,22.229 11.625,22.068 11.74,21.985C11.781,21.956 11.831,21.941 11.881,21.941C11.966,21.941 12.044,21.984 12.09,22.055C12.424,22.565 12.976,22.868 13.57,22.868C14.163,22.868 14.715,22.563 15.047,22.054C15.093,21.983 15.171,21.939 15.256,21.939C15.307,21.939 15.356,21.955 15.398,21.984C15.514,22.064 15.545,22.227 15.466,22.347C15.052,22.993 14.337,23.387 13.569,23.391L13.57,23.392ZM19.097,26.949C19.191,27.056 19.183,27.221 19.079,27.319C18.283,28.063 16.992,28.072 16.937,28.072C16.798,28.069 16.685,27.954 16.685,27.815C16.685,27.813 16.685,27.812 16.685,27.81C16.685,27.666 16.798,27.549 16.937,27.549C16.959,27.549 18.092,27.536 18.739,26.93C18.785,26.887 18.845,26.862 18.909,26.862C18.981,26.862 19.049,26.894 19.096,26.949L19.097,26.949ZM16.605,25.506C16.605,25.786 16.825,26.012 17.093,26.012C17.365,26.007 17.585,25.778 17.581,25.506C17.581,25.362 17.695,25.245 17.834,25.245C17.974,25.245 18.087,25.362 18.087,25.506C18.087,26.073 17.641,26.535 17.093,26.535C16.545,26.535 16.099,26.073 16.099,25.506C16.099,25.362 16.212,25.245 16.352,25.245C16.492,25.245 16.605,25.362 16.605,25.506ZM11.312,18.342C11.312,18.342 12.942,18.917 13.522,19.08C14.257,19.287 15.411,19.454 16.015,19.532C16.036,19.411 16.141,19.322 16.263,19.32C16.403,19.32 16.516,19.437 16.516,19.581L16.516,24.131C16.516,24.2 16.489,24.266 16.442,24.316L15.588,25.199C15.541,25.247 15.477,25.275 15.41,25.275C15.342,25.275 15.278,25.247 15.231,25.199C15.133,25.096 15.133,24.932 15.231,24.829L16.011,24.022L16.011,20.342L14.888,20.464C14.944,20.621 14.976,20.791 14.976,20.969C14.976,21.367 14.821,21.729 14.57,21.991L12.566,21.991C12.305,21.715 12.159,21.349 12.161,20.969C12.161,20.527 12.351,20.132 12.652,19.865C12.275,19.716 11.887,19.597 11.492,19.51C10.745,19.348 9.676,19.315 9.676,19.315L11.312,18.342Z" style="fill:white;fill-rule:nonzero;"/>
    </g>
    <g transform="matrix(1,0,0,1,6.71633,-0.79)">
        <path d="M8.301,42.915C8.423,42.915 8.521,42.813 8.521,42.687C8.521,42.686 8.521,42.684 8.521,42.683C8.521,42.562 8.422,42.461 8.301,42.459C8.18,42.461 8.081,42.562 8.081,42.683C8.081,42.684 8.081,42.686 8.081,42.687C8.081,42.813 8.179,42.915 8.301,42.915ZM9.324,44.812C9.446,44.812 9.544,44.71 9.544,44.584C9.544,44.582 9.544,44.581 9.544,44.579C9.544,44.458 9.445,44.357 9.324,44.355C9.203,44.357 9.104,44.458 9.104,44.579C9.104,44.581 9.104,44.582 9.104,44.584C9.104,44.709 9.203,44.812 9.324,44.812Z" style="fill:rgb(216,18,35);fill-rule:nonzero;"/>
    </g>
    <g transform="matrix(1,0,0,1,6.71633,-0.79)">
        <path d="M31.558,32.122C31.538,32.058 31.494,32.004 31.435,31.972L27.437,29.814C26.595,32.013 25.507,34.85 24.844,36.577L27.27,35.793L33.084,38.386C33.175,38.427 33.282,38.408 33.354,38.339C33.428,38.269 33.455,38.162 33.424,38.065L31.558,32.122Z" style="fill-rule:nonzero;"/>
    </g>
    <g transform="matrix(1,0,0,1,6.71633,-0.79)">
        <path d="M13.615,21.395C13.846,21.395 14.035,21.2 14.035,20.961C14.035,20.958 14.035,20.956 14.035,20.953C14.035,20.721 13.847,20.53 13.615,20.526C13.383,20.53 13.195,20.721 13.195,20.953C13.195,20.956 13.195,20.958 13.195,20.961C13.195,21.201 13.383,21.395 13.615,21.395ZM21.921,20.696C21.781,20.616 21.631,20.554 21.483,20.49C21.396,20.455 21.315,20.409 21.242,20.351C21.098,20.233 21.126,20.041 21.293,19.965C21.34,19.945 21.39,19.935 21.441,19.934C21.635,19.924 21.821,19.96 21.995,20.048C22.083,20.092 22.111,20.078 22.141,19.983C22.172,19.883 22.197,19.782 22.227,19.681C22.246,19.613 22.223,19.57 22.161,19.541C22.05,19.49 21.932,19.453 21.811,19.433C21.652,19.408 21.652,19.407 21.651,19.242C21.651,19.087 21.576,19.01 21.425,19.01L21.327,19.01C21.222,19.013 21.203,19.032 21.2,19.142L21.2,19.29C21.2,19.436 21.2,19.433 21.064,19.485C20.737,19.607 20.536,19.837 20.514,20.205C20.496,20.532 20.66,20.752 20.919,20.912C21.079,21.012 21.255,21.069 21.424,21.146C21.49,21.176 21.554,21.211 21.608,21.258C21.771,21.398 21.74,21.628 21.548,21.715C21.447,21.76 21.335,21.775 21.225,21.759C21.052,21.739 20.885,21.688 20.731,21.607C20.641,21.557 20.613,21.571 20.582,21.672C20.556,21.76 20.532,21.849 20.509,21.938C20.476,22.058 20.489,22.087 20.599,22.142C20.739,22.212 20.889,22.249 21.044,22.274C21.164,22.294 21.167,22.299 21.169,22.428L21.17,22.604C21.17,22.677 21.204,22.72 21.278,22.722L21.528,22.722C21.596,22.721 21.631,22.682 21.631,22.611C21.631,22.531 21.635,22.451 21.631,22.371C21.627,22.289 21.661,22.248 21.737,22.226C22.098,22.128 22.351,21.798 22.351,21.424C22.351,21.121 22.186,20.842 21.921,20.696Z" style="fill:white;fill-rule:nonzero;"/>
    </g>
    <g transform="matrix(1,0,0,1,6.71633,-0.79)">
        <path d="M22.614,22.76C23.657,22.092 23.979,20.677 23.334,19.598C22.69,18.519 21.323,18.185 20.28,18.852C19.237,19.519 18.914,20.934 19.559,22.013C20.203,23.092 21.571,23.426 22.614,22.759L22.614,22.76ZM19.699,40.865L17.351,42.298L15,40.865C14.961,40.842 14.917,40.83 14.872,40.83C14.782,40.83 14.699,40.879 14.655,40.958C14.585,41.081 14.625,41.24 14.745,41.315L17.082,42.741L17.082,45.406C17.082,45.551 17.195,45.668 17.335,45.668C17.475,45.668 17.587,45.551 17.587,45.406L17.587,42.758L19.953,41.315C20.073,41.24 20.113,41.081 20.043,40.958C20,40.879 19.916,40.829 19.825,40.829C19.78,40.829 19.736,40.842 19.697,40.865L19.699,40.865ZM4.14,39.132C3.735,39.14 3.408,39.478 3.414,39.883C3.408,40.288 3.735,40.626 4.14,40.634C4.545,40.626 4.872,40.288 4.866,39.883C4.872,39.478 4.545,39.14 4.14,39.132ZM4.14,40.112C4.017,40.109 3.918,40.006 3.92,39.883C3.92,39.757 4.019,39.655 4.14,39.655C4.262,39.655 4.36,39.757 4.36,39.883C4.36,40.009 4.262,40.111 4.14,40.111L4.14,40.112ZM9.024,42.699C9.031,42.294 8.703,41.955 8.298,41.947C7.893,41.955 7.565,42.294 7.572,42.699C7.566,43.103 7.894,43.441 8.298,43.449C8.702,43.441 9.03,43.103 9.024,42.699ZM8.298,42.926C8.176,42.923 8.077,42.821 8.078,42.699C8.078,42.573 8.177,42.47 8.298,42.47C8.419,42.47 8.518,42.573 8.518,42.699C8.518,42.824 8.419,42.926 8.298,42.926ZM9.32,43.844C8.916,43.852 8.588,44.19 8.594,44.594C8.587,44.999 8.915,45.338 9.32,45.346C9.725,45.338 10.052,45 10.046,44.595C10.052,44.19 9.725,43.852 9.32,43.844ZM9.32,44.823C9.197,44.82 9.098,44.718 9.1,44.595C9.1,44.469 9.199,44.367 9.32,44.367C9.442,44.367 9.54,44.469 9.54,44.595C9.54,44.721 9.442,44.823 9.32,44.823ZM30.515,39.132C30.11,39.14 29.783,39.478 29.789,39.883C29.783,40.288 30.11,40.626 30.515,40.634C30.92,40.626 31.247,40.288 31.241,39.883C31.247,39.478 30.92,39.14 30.515,39.132ZM30.515,40.112C30.392,40.109 30.293,40.006 30.295,39.883C30.295,39.757 30.394,39.655 30.515,39.655C30.636,39.655 30.735,39.757 30.735,39.883C30.735,40.009 30.636,40.111 30.515,40.111L30.515,40.112ZM26.358,41.947C25.953,41.955 25.625,42.294 25.632,42.699C25.626,43.103 25.954,43.441 26.358,43.449C26.762,43.441 27.09,43.103 27.084,42.699C27.091,42.294 26.763,41.955 26.358,41.947ZM26.358,42.927C26.235,42.924 26.136,42.822 26.138,42.699C26.138,42.573 26.238,42.47 26.358,42.47C26.48,42.47 26.578,42.573 26.578,42.699C26.578,42.824 26.48,42.926 26.358,42.926L26.358,42.927ZM25.335,43.844C24.931,43.852 24.603,44.19 24.609,44.594C24.602,44.999 24.93,45.338 25.335,45.346C25.74,45.338 26.067,45 26.061,44.595C26.067,44.19 25.74,43.852 25.335,43.844ZM25.335,44.823C25.212,44.82 25.113,44.718 25.115,44.595C25.115,44.469 25.214,44.367 25.335,44.367C25.456,44.367 25.555,44.469 25.555,44.595C25.557,44.718 25.458,44.82 25.335,44.823ZM16.682,27.822C16.682,27.966 16.795,28.084 16.935,28.084C16.989,28.084 18.279,28.075 19.076,27.33C19.179,27.232 19.187,27.068 19.094,26.96C19.047,26.906 18.979,26.875 18.907,26.875C18.844,26.875 18.783,26.899 18.737,26.942C18.09,27.548 16.956,27.56 16.936,27.56C16.797,27.562 16.683,27.677 16.683,27.817C16.683,27.819 16.683,27.82 16.683,27.822L16.682,27.822ZM16.095,25.517C16.095,26.084 16.541,26.546 17.089,26.546C17.637,26.546 18.083,26.084 18.083,25.517C18.083,25.516 18.083,25.514 18.083,25.513C18.083,25.373 17.969,25.258 17.83,25.256C17.691,25.258 17.577,25.373 17.577,25.513C17.577,25.514 17.577,25.516 17.577,25.517C17.577,25.797 17.357,26.023 17.089,26.023C16.817,26.018 16.597,25.789 16.601,25.517C16.601,25.516 16.601,25.514 16.601,25.513C16.601,25.373 16.487,25.258 16.348,25.256C16.209,25.258 16.095,25.373 16.095,25.513C16.095,25.514 16.095,25.516 16.095,25.517ZM12.65,19.878C12.349,20.145 12.158,20.54 12.158,20.982C12.158,21.38 12.313,21.742 12.563,22.004L14.567,22.004C14.818,21.741 14.973,21.38 14.973,20.982C14.973,20.81 14.943,20.639 14.885,20.477L16.007,20.355L16.007,24.035L15.227,24.841C15.129,24.944 15.129,25.109 15.227,25.211C15.274,25.26 15.339,25.288 15.407,25.288C15.474,25.288 15.539,25.26 15.586,25.211L16.439,24.328C16.487,24.278 16.513,24.212 16.513,24.143L16.513,19.594C16.513,19.593 16.513,19.591 16.513,19.59C16.513,19.45 16.399,19.335 16.26,19.333C16.137,19.334 16.032,19.424 16.012,19.545C15.408,19.467 14.254,19.3 13.519,19.093C12.939,18.93 11.309,18.355 11.309,18.355L9.673,19.328C9.673,19.328 10.743,19.361 11.489,19.523C11.913,19.615 12.305,19.743 12.649,19.878L12.65,19.878Z" style="fill-rule:nonzero;"/>
    </g>
    <g transform="matrix(1,0,0,1,6.71633,-0.79)">
        <path d="M15.463,22.36C15.54,22.241 15.51,22.08 15.395,21.997C15.354,21.968 15.304,21.953 15.254,21.953C15.169,21.953 15.091,21.996 15.045,22.067C14.712,22.577 14.16,22.881 13.566,22.881C12.968,22.878 12.411,22.571 12.088,22.068C12.043,21.996 11.964,21.953 11.879,21.953C11.828,21.953 11.779,21.969 11.737,21.998C11.622,22.081 11.591,22.242 11.669,22.361C12.083,23.007 12.798,23.401 13.566,23.405C14.327,23.405 15.036,23.015 15.463,22.361L15.463,22.36ZM23.067,14.982C23.472,14.974 23.799,14.636 23.793,14.231C23.8,13.826 23.472,13.487 23.067,13.479C22.662,13.487 22.334,13.826 22.341,14.231C22.335,14.635 22.663,14.973 23.067,14.981L23.067,14.982ZM23.067,14.002C23.189,14.002 23.287,14.105 23.287,14.231C23.287,14.356 23.189,14.459 23.067,14.459C22.944,14.456 22.845,14.354 22.847,14.231C22.847,14.105 22.946,14.003 23.067,14.003L23.067,14.002Z" style="fill-rule:nonzero;"/>
    </g>
    <g transform="matrix(1,0,0,1,6.71633,-0.79)">
        <path d="M29.218,39.62L26.6,39.62C26.557,39.62 26.514,39.632 26.477,39.654L24.359,40.876L22.229,40.876L22.229,39.795C22.23,39.705 22.184,39.621 22.109,39.572L20.463,38.529L23.899,37.542L27.139,26.928C27.175,26.799 27.108,26.663 26.984,26.612L25.143,25.907L25.079,25.109L26.476,24.826L26.521,24.792C26.569,24.755 27.707,23.875 28.911,21.28C29.454,20.11 30.654,17.401 30.666,17.374L30.723,17.244L30.648,17.124C30.371,16.698 30.039,16.311 29.66,15.973C30.371,15.5 31.825,14.231 31.241,12.032L31.143,11.66L30.778,11.945C30.428,12.218 29.609,12.858 29.278,12.783C29.248,12.776 29.224,12.762 29.2,12.715C29.087,12.497 29.153,12.365 29.36,12.012C29.812,11.244 30.496,10.082 28.85,6.788L28.564,6.215L28.384,6.832C28.134,7.682 27.753,8.228 27.247,8.457C26.817,8.651 26.383,8.571 26.143,8.495C26.255,7.985 26.426,6.768 25.82,5.773C25.37,5.033 24.59,4.579 23.506,4.427C16.635,3.457 14.763,3.244 9.203,2.809C7.192,2.651 6.233,3.297 5.462,3.815C5.099,4.058 4.799,4.259 4.452,4.345C4.252,4.366 4.118,4.383 4.066,4.39C3.974,4.39 3.878,4.383 3.776,4.366C3.341,4.296 3.011,4.08 2.796,3.725C2.472,3.191 2.419,2.358 2.658,1.553L2.884,0.79L2.267,1.265C0.85,2.354 0.66,3.646 0.749,4.536C0.892,5.976 1.896,7.412 3.189,8.031C4.013,8.424 4.463,9.091 4.396,9.814C4.349,10.311 4.054,10.725 3.678,10.82C3.345,10.905 3.055,10.864 2.816,10.7C2.407,10.422 2.123,9.795 1.969,8.838L1.785,7.69L1.477,8.807C1.044,10.373 1.154,11.606 1.804,12.47C2.463,13.345 3.502,13.609 4.128,13.686C3.737,14.136 3.037,14.862 2.307,15.227L1.684,15.537L2.354,15.716C2.864,15.85 3.424,15.792 3.92,15.67C3.732,15.924 3.585,16.206 3.484,16.505C3.181,17.403 3.304,18.42 3.85,19.526L4.37,20.582L4.327,19.397C4.279,18.064 4.75,17.448 5.118,17.172C5.072,17.514 5.039,18.034 5.061,18.809C5.131,21.238 7.421,24.301 7.518,24.429L7.569,24.497L9.584,25.101L9.598,25.851L7.625,26.606C7.5,26.656 7.432,26.795 7.47,26.925L8.14,29.299L3.18,31.976C3.121,32.008 3.076,32.062 3.056,32.126L1.19,38.07C1.16,38.167 1.187,38.273 1.26,38.344C1.332,38.413 1.439,38.432 1.53,38.392L7.344,35.798L10.176,36.714C10.196,36.721 10.216,36.724 10.236,36.724L10.404,37.319C10.427,37.405 10.493,37.474 10.579,37.499L14.209,38.54L12.574,39.563C12.498,39.612 12.451,39.696 12.452,39.787L12.452,40.869L10.293,40.869L8.176,39.647C8.138,39.625 8.096,39.614 8.052,39.614L5.435,39.614C5.294,39.617 5.181,39.734 5.183,39.875C5.183,40.02 5.296,40.137 5.435,40.137L7.987,40.137L10.047,41.327C10.091,41.367 10.148,41.392 10.213,41.392L12.452,41.392L12.452,42.43L9.626,42.43C9.487,42.432 9.373,42.547 9.373,42.687C9.373,42.689 9.373,42.69 9.373,42.692C9.373,42.836 9.486,42.953 9.626,42.953L12.452,42.953L12.452,44.327L10.648,44.327C10.509,44.329 10.395,44.444 10.395,44.584C10.395,44.585 10.395,44.587 10.395,44.588C10.395,44.733 10.508,44.85 10.648,44.85L12.452,44.85L12.452,45.24C12.452,45.332 12.498,45.417 12.574,45.464L17.146,48.303C17.193,48.355 17.26,48.385 17.33,48.386L17.35,48.386C17.42,48.385 17.487,48.355 17.534,48.303L22.105,45.464C22.182,45.416 22.228,45.331 22.228,45.24L22.228,44.85L24.003,44.85C24.143,44.85 24.256,44.733 24.256,44.588C24.256,44.587 24.256,44.585 24.256,44.584C24.256,44.444 24.142,44.329 24.003,44.327L22.228,44.327L22.228,42.953L25.025,42.953C25.165,42.953 25.278,42.836 25.278,42.692C25.278,42.69 25.278,42.689 25.278,42.687C25.278,42.548 25.165,42.433 25.026,42.43L22.228,42.43L22.228,41.392L24.438,41.392C24.5,41.392 24.559,41.368 24.605,41.326L26.665,40.136L29.215,40.136C29.355,40.136 29.468,40.019 29.468,39.876C29.468,39.874 29.468,39.873 29.468,39.871C29.468,39.732 29.355,39.617 29.216,39.614L29.218,39.621L29.218,39.62ZM18.746,33.352L15.866,33.352L13.89,31.663L15.671,32.323L16.933,32.323L17.347,31.993L17.832,32.333L19.204,32.333L20.801,31.597L18.746,33.352ZM19.648,38.26C19.637,38.272 19.628,38.284 19.62,38.298L19.615,38.31L17.306,39.782L14.958,38.284L15.285,36.984L17.227,38.173C17.305,38.221 17.404,38.222 17.483,38.174L19.347,37.054L19.65,38.259L19.648,38.259L19.648,38.26ZM15.725,35.23L17.227,36.149C17.305,36.196 17.404,36.196 17.482,36.149L18.904,35.295L19.214,36.528L17.357,37.645L15.417,36.457L15.726,35.229L15.725,35.229L15.725,35.23ZM17.355,35.62L15.857,34.703L16.066,33.874L18.547,33.874L18.771,34.769L17.356,35.619L17.356,35.62L17.355,35.62ZM14.502,38.017L14.486,38.082L14.483,38.082L14.503,38.017L14.502,38.017ZM11.117,31.527L12.058,29.23L14.1,31L11.117,31.525L11.117,31.527ZM20.87,31L22.67,29.56L23.69,31.591L20.869,31L20.87,31ZM24.01,23.75L24.01,27.133L21.705,29.283L19.008,31.623L17.815,31.623L17.486,31.434C17.438,31.387 17.373,31.362 17.306,31.365C17.239,31.363 17.174,31.388 17.126,31.435L16.798,31.623L15.605,31.623L14.495,30.659L15.222,29.906L15.909,29.906C15.977,29.906 16.041,29.878 16.088,29.829L16.503,29.4L17.827,29.4L18.283,29.872C18.331,29.922 18.394,29.948 18.463,29.948L19.205,29.948C19.263,29.948 19.319,29.928 19.363,29.891L23.263,26.674C23.326,26.621 23.361,26.542 23.357,26.46L23.284,24.216C23.282,24.078 23.169,23.965 23.031,23.963L20.281,23.963L18.468,22.413L18.468,18.995L20.964,17.541L22.608,17.541L24.436,17.583C24.521,17.849 24.628,18.357 24.653,19.266C24.696,20.815 24.011,23.749 24.011,23.749L24.011,23.751L24.01,23.75ZM24.426,15.762L20.676,16.304L17.516,17.837L17.516,13.422L18.749,12.41L22.937,11.548L24.75,13.358L24.427,15.762L24.426,15.762ZM25.727,21.118C25.796,20.735 25.838,20.29 25.862,19.826C25.876,19.816 25.89,19.805 25.902,19.793C25.908,19.787 26.05,19.647 26.443,19.414C26.578,20.378 26.626,21.673 26.343,22.01C26.087,22.314 25.663,22.693 25.305,22.995C25.43,22.546 25.584,21.921 25.728,21.119L25.727,21.118ZM23.44,4.946C23.54,4.96 23.636,4.977 23.73,4.996C25.44,6.07 25.499,7.593 24.373,9.135C23.981,9.672 23.169,9.33 23.571,8.809C23.911,8.371 24.025,7.359 23.812,6.923C23.559,6.409 23.2,6.003 22.782,5.626C22.374,5.261 21.929,4.94 21.455,4.667L23.44,4.946ZM18.488,4.266C19.655,4.956 20.795,5.813 21.528,6.924C22.417,8.272 21.11,8.88 20.89,8.253C20.1,5.996 17.382,4.688 16.408,4.339C15.848,4.136 15.279,3.962 14.701,3.818C15.899,3.942 17.083,4.084 18.489,4.267L18.489,4.266L18.488,4.266ZM9.168,3.331C10.366,3.425 11.392,3.508 12.335,3.591C14.073,3.988 17.091,4.896 18.697,7.375C18.876,7.651 18.538,8.295 17.512,7.367C16.749,6.677 15.24,5.837 13.089,5.082C11.123,4.392 9.139,3.707 7.066,3.544C7.596,3.363 8.261,3.26 9.169,3.331L9.168,3.331ZM7.869,24.046C7.538,23.59 5.627,20.871 5.568,18.798C5.524,17.272 5.708,16.828 5.708,16.828L5.953,16.341L5.433,16.452C5.418,16.455 4.269,16.72 3.919,18.258C3.786,17.691 3.799,17.166 3.959,16.688C4.254,15.808 4.98,15.321 5.239,15.173L5.349,15.113L5.122,14.645C5.112,14.649 5.069,14.67 5.001,14.709C4.731,14.847 3.976,15.201 3.221,15.266C4.118,14.591 4.813,13.669 4.848,13.621L5.174,13.184L4.64,13.199C4.622,13.199 3.013,13.234 2.2,12.151C1.805,11.625 1.656,10.914 1.75,10.031C1.944,10.545 2.207,10.916 2.535,11.141C2.893,11.384 3.329,11.45 3.797,11.331C4.387,11.182 4.83,10.593 4.897,9.867C4.931,9.509 4.922,8.287 3.401,7.559C2.279,7.022 1.375,5.729 1.251,4.485C1.188,3.859 1.291,2.998 2.025,2.185C1.968,2.795 2.041,3.466 2.367,4.005C2.66,4.488 3.12,4.793 3.698,4.885C3.826,4.905 3.945,4.915 4.06,4.915L4.07,4.915C4.226,4.915 4.373,4.897 4.51,4.867C5.375,4.778 7.495,4.615 9.344,4.912C9.372,4.916 9.4,4.922 9.429,4.928C9.831,5.009 10.261,5.105 10.699,5.21C12.625,5.75 14.473,6.763 16.109,8.188C17.326,9.247 17.93,10.268 17.906,11.224C17.884,12.097 17.32,12.664 17.159,12.808L16.129,11.962C16.098,11.936 16.06,11.918 16.02,11.91L11.643,11.01C11.561,10.994 11.476,11.02 11.418,11.079L9.418,13.075C9.36,13.134 9.332,13.217 9.344,13.299L9.672,15.743L9.024,15.913C8.919,15.942 8.843,16.034 8.834,16.143C8.827,16.233 8.706,17.68 8.729,19.153C8.444,18.959 7.951,18.671 7.134,18.315C7.103,18.302 7.07,18.295 7.037,18.295C6.934,18.295 6.841,18.359 6.804,18.455C6.749,18.586 6.809,18.738 6.938,18.797C7.235,18.927 7.484,19.045 7.695,19.154C7.598,19.77 7.345,21.707 7.888,22.352C8.347,22.899 9.256,23.626 9.56,23.864L9.573,24.556L7.867,24.045L7.869,24.045L7.869,24.046ZM9.309,22.996C8.95,22.693 8.527,22.314 8.271,22.01C7.988,21.672 8.036,20.377 8.171,19.414C8.564,19.647 8.706,19.785 8.713,19.793C8.725,19.805 8.738,19.816 8.752,19.826C8.775,20.29 8.817,20.736 8.887,21.118C9.031,21.92 9.185,22.546 9.31,22.994L9.31,22.995L9.309,22.996ZM9.383,21.023C9.121,19.568 9.275,17.07 9.325,16.373L10.017,16.192C10.144,16.157 10.225,16.032 10.205,15.902L9.863,13.357L11.676,11.548L15.864,12.409L17.01,13.351L17.01,17.96C17.01,18.029 17.035,18.095 17.082,18.143L17.961,19.068L17.961,22.536C17.961,22.614 17.994,22.688 18.053,22.738L20.027,24.427C20.073,24.465 20.129,24.487 20.188,24.487L22.785,24.487L22.845,26.347L19.115,29.424L18.565,29.424L18.109,28.953C18.062,28.904 17.998,28.876 17.93,28.876L16.396,28.876C16.329,28.876 16.264,28.903 16.217,28.952L15.803,29.382L15.116,29.382C15.049,29.382 14.984,29.409 14.937,29.458L14.103,30.321L10.123,26.867L10.063,23.725C10.062,23.719 10.061,23.713 10.06,23.707C10.06,23.7 10.059,23.692 10.058,23.685C10.058,23.676 10.054,23.668 10.052,23.66L10.046,23.638C10.046,23.635 10.046,23.633 10.044,23.631C10.04,23.621 9.687,22.718 9.382,21.022L9.383,21.022L9.383,21.023ZM7.406,35.273C7.348,35.254 7.285,35.258 7.23,35.283L1.844,37.686L3.506,32.396L6.066,31.014L9.506,35.953L7.406,35.273ZM10.852,37.038L8.023,27.017L8.808,26.717L10.754,29.083L10.254,31.895L13.81,34.037L14.461,38.074L10.853,37.038L10.852,37.038ZM21.726,40.874L20.996,40.874C20.857,40.876 20.743,40.991 20.743,41.131C20.743,41.133 20.743,41.134 20.743,41.136C20.743,41.28 20.857,41.397 20.996,41.397L21.726,41.397L21.726,42.435L20.996,42.435C20.857,42.437 20.743,42.552 20.743,42.692C20.743,42.694 20.743,42.695 20.743,42.697C20.743,42.841 20.857,42.958 20.996,42.958L21.726,42.958L21.726,44.332L20.996,44.332C20.857,44.334 20.743,44.449 20.743,44.589C20.743,44.591 20.743,44.592 20.743,44.594C20.743,44.738 20.857,44.855 20.996,44.855L21.726,44.855L21.726,45.098L17.344,47.819L12.961,45.098L12.961,44.855L13.588,44.855C13.728,44.855 13.841,44.738 13.841,44.594C13.841,44.592 13.841,44.591 13.841,44.589C13.841,44.449 13.727,44.334 13.588,44.332L12.961,44.332L12.961,42.958L13.588,42.958C13.728,42.958 13.841,42.841 13.841,42.697C13.841,42.695 13.841,42.694 13.841,42.692C13.841,42.552 13.727,42.437 13.588,42.435L12.961,42.435L12.961,41.397L13.588,41.397C13.728,41.397 13.841,41.28 13.841,41.136C13.841,41.134 13.841,41.133 13.841,41.131C13.841,40.991 13.727,40.876 13.588,40.874L12.961,40.874L12.961,39.94L14.795,38.792C14.795,38.792 17.3,40.362 17.307,40.362C17.316,40.362 19.87,38.762 19.87,38.762L21.727,39.94L21.727,40.875L21.726,40.874Z" style="fill-rule:nonzero;"/>
    </g>
    <g transform="matrix(1,0,0,1,6.71633,-0.79)">
        <path d="M33.422,38.077L31.556,32.134C31.536,32.07 31.491,32.016 31.432,31.984L27.434,29.826L24.842,36.589L27.267,35.804L33.081,38.398C33.114,38.413 33.148,38.418 33.181,38.418C33.244,38.419 33.305,38.394 33.351,38.351C33.425,38.281 33.452,38.174 33.421,38.077L33.422,38.077Z" style="fill-rule:nonzero;"/>
    </g>
    <g transform="matrix(1,0,0,1,6.71633,-0.79)">
        <path d="M13.612,21.407C13.844,21.407 14.032,21.212 14.032,20.972C14.032,20.97 14.032,20.967 14.032,20.965C14.032,20.733 13.844,20.542 13.612,20.538C13.38,20.542 13.192,20.733 13.192,20.965C13.192,20.967 13.192,20.97 13.192,20.972C13.192,21.212 13.38,21.406 13.612,21.406L13.612,21.407ZM21.918,20.708C21.777,20.628 21.628,20.566 21.478,20.502C21.392,20.467 21.311,20.42 21.238,20.362C21.094,20.245 21.123,20.053 21.29,19.977C21.337,19.957 21.386,19.946 21.437,19.945C21.631,19.935 21.817,19.971 21.991,20.059C22.079,20.103 22.108,20.089 22.137,19.994C22.168,19.895 22.194,19.794 22.223,19.694C22.243,19.625 22.219,19.581 22.157,19.553C22.046,19.502 21.928,19.465 21.807,19.445C21.648,19.42 21.648,19.419 21.647,19.254C21.647,19.099 21.572,19.021 21.421,19.021L21.323,19.021C21.218,19.025 21.2,19.044 21.197,19.153C21.195,19.203 21.197,19.252 21.197,19.302C21.197,19.447 21.195,19.445 21.06,19.497C20.733,19.619 20.532,19.849 20.511,20.217C20.491,20.544 20.657,20.764 20.916,20.924C21.076,21.023 21.251,21.081 21.42,21.158C21.486,21.188 21.55,21.223 21.604,21.27C21.767,21.409 21.737,21.64 21.544,21.727C21.443,21.772 21.331,21.787 21.221,21.771C21.048,21.751 20.881,21.699 20.727,21.618C20.637,21.569 20.609,21.583 20.579,21.684C20.552,21.772 20.529,21.861 20.505,21.95C20.473,22.07 20.485,22.099 20.595,22.154C20.735,22.224 20.886,22.261 21.04,22.286C21.16,22.306 21.163,22.311 21.165,22.439L21.166,22.615C21.166,22.689 21.201,22.731 21.274,22.734L21.524,22.734C21.592,22.732 21.627,22.694 21.627,22.623C21.627,22.543 21.631,22.463 21.627,22.382C21.623,22.3 21.657,22.26 21.734,22.238C22.096,22.141 22.35,21.811 22.35,21.436C22.35,21.133 22.184,20.853 21.918,20.708Z" style="fill:white;fill-rule:nonzero;"/>
    </g>
</svg>
