<svg viewBox="0 0 24 24" fill="none" xmlns="http://www.w3.org/2000/svg">
<path fill-rule="evenodd" clip-rule="evenodd" d="M8.32624 12.0588C8.32624 9.99113 9.93271 8.25 11.9938 8.25C14.0523 8.25 15.6662 9.98783 15.6738 12.0496L15.6738 12.0523C15.6738 13.0128 15.326 13.8873 14.7542 14.5546C16.2601 15.5208 17.25 17.2489 17.25 19.2046V19.4935C17.25 19.9077 16.9142 20.2435 16.5 20.2435C16.0858 20.2435 15.75 19.9077 15.75 19.4935V19.2046C15.75 17.4221 14.6423 15.9413 13.1491 15.4331C12.8697 15.338 12.6721 15.0879 12.6442 14.7941C12.6162 14.5002 12.7632 14.2174 13.0197 14.0713C13.699 13.6846 14.1733 12.9351 14.1738 12.0537C14.1683 10.7534 13.1616 9.75 11.9938 9.75C10.8283 9.75 9.82624 10.7508 9.82624 12.0588C9.82624 12.9408 10.3006 13.6908 10.9803 14.0778C11.2368 14.2238 11.3838 14.5067 11.3558 14.8005C11.3279 15.0943 11.1303 15.3445 10.8509 15.4396C9.35773 15.9478 8.25 17.4285 8.25 19.2111V19.5C8.25 19.9142 7.91421 20.25 7.5 20.25C7.08579 20.25 6.75 19.9142 6.75 19.5V19.2111C6.75 17.2554 7.73994 15.5272 9.24581 14.5611C8.67398 13.8937 8.32624 13.0192 8.32624 12.0588Z" fill="currentColor"/>
<path fill-rule="evenodd" clip-rule="evenodd" d="M12 20.5C16.1421 20.5 19.5 17.1421 19.5 13C19.5 8.85786 16.1421 5.5 12 5.5C7.85786 5.5 4.5 8.85786 4.5 13C4.5 17.1421 7.85786 20.5 12 20.5ZM12 22C16.9706 22 21 17.9706 21 13C21 8.02944 16.9706 4 12 4C7.02944 4 3 8.02944 3 13C3 17.9706 7.02944 22 12 22Z" fill="currentColor"/>
<path d="M15 19C15 16.7909 16.7909 15 19 15C21.2091 15 23 16.7909 23 19C23 21.2091 21.2091 23 19 23C16.7909 23 15 21.2091 15 19Z" fill="currentColor"/>
</svg>
