<svg viewBox="0 0 24 24" fill="none" xmlns="http://www.w3.org/2000/svg">
<path fill-rule="evenodd" clip-rule="evenodd" d="M8.32624 11.0588C8.32624 8.99113 9.93271 7.25 11.9938 7.25C14.0523 7.25 15.6662 8.98783 15.6738 11.0496L15.6738 11.0523C15.6738 12.0128 15.326 12.8873 14.7542 13.5546C16.2601 14.5208 17.25 16.2489 17.25 18.2046V18.4935C17.25 18.9077 16.9142 19.2435 16.5 19.2435C16.0858 19.2435 15.75 18.9077 15.75 18.4935V18.2046C15.75 16.4221 14.6423 14.9413 13.1491 14.4331C12.8697 14.338 12.6721 14.0879 12.6442 13.7941C12.6162 13.5002 12.7632 13.2174 13.0197 13.0713C13.699 12.6846 14.1733 11.9351 14.1738 11.0537C14.1683 9.75336 13.1616 8.75 11.9938 8.75C10.8283 8.75 9.82624 9.75079 9.82624 11.0588C9.82624 11.9408 10.3006 12.6908 10.9803 13.0778C11.2368 13.2238 11.3838 13.5067 11.3558 13.8005C11.3279 14.0943 11.1303 14.3445 10.8509 14.4396C9.35773 14.9478 8.25 16.4285 8.25 18.2111V18.5C8.25 18.9142 7.91421 19.25 7.5 19.25C7.08579 19.25 6.75 18.9142 6.75 18.5V18.2111C6.75 16.2554 7.73994 14.5272 9.24581 13.5611C8.67398 12.8937 8.32624 12.0192 8.32624 11.0588Z" fill="currentColor"/>
<path fill-rule="evenodd" clip-rule="evenodd" d="M12 19.5C16.1421 19.5 19.5 16.1421 19.5 12C19.5 7.85786 16.1421 4.5 12 4.5C7.85786 4.5 4.5 7.85786 4.5 12C4.5 16.1421 7.85786 19.5 12 19.5ZM12 21C16.9706 21 21 16.9706 21 12C21 7.02944 16.9706 3 12 3C7.02944 3 3 7.02944 3 12C3 16.9706 7.02944 21 12 21Z" fill="currentColor"/>
</svg>
