<svg viewBox="0 0 24 24" fill="none" xmlns="http://www.w3.org/2000/svg">
<path fill-rule="evenodd" clip-rule="evenodd" d="M2.0415 3.78271C2.0415 3.3685 2.37729 3.03271 2.7915 3.03271H5.95817C6.315 3.03271 6.62242 3.28412 6.69325 3.63385L7.36396 6.94576H20.2082C20.432 6.94576 20.6441 7.04571 20.7866 7.21831C20.929 7.39091 20.987 7.61812 20.9446 7.83788L19.6779 14.4014L19.6772 14.405C19.5351 15.1227 19.0695 15.7028 18.4544 16.0166C19.7033 16.0657 20.6943 17.0935 20.6943 18.353C20.6943 19.6439 19.6535 20.6913 18.3609 20.6913C17.0684 20.6913 16.0276 19.6439 16.0276 18.353C16.0276 17.4463 16.5412 16.6597 17.2948 16.2718H9.9271C10.6807 16.6597 11.1943 17.4463 11.1943 18.353C11.1943 19.6439 10.1535 20.6913 8.86095 20.6913C7.56844 20.6913 6.52762 19.6439 6.52762 18.353C6.52762 17.1512 7.42987 16.1604 8.59746 16.0295C7.96946 15.7206 7.48997 15.1382 7.34449 14.4068L7.34413 14.405L6.02302 7.88152C6.01697 7.85776 6.01205 7.83354 6.00832 7.80894L5.34483 4.53271H2.7915C2.37729 4.53271 2.0415 4.19693 2.0415 3.78271ZM7.66774 8.44576L8.81555 14.1135C8.89058 14.4923 9.23684 14.7776 9.65295 14.7719L9.66317 14.7718L17.3582 14.7718L17.3735 14.772C17.7809 14.7803 18.129 14.4973 18.2055 14.1151L18.2058 14.1135L19.2996 8.44576H7.66774ZM8.86095 17.5148C8.40124 17.5148 8.02762 17.8862 8.02762 18.353C8.02762 18.8198 8.40123 19.1913 8.86095 19.1913C9.32066 19.1913 9.69428 18.8198 9.69428 18.353C9.69428 17.8862 9.32066 17.5148 8.86095 17.5148ZM18.3609 17.5148C17.9012 17.5148 17.5276 17.8862 17.5276 18.353C17.5276 18.8198 17.9012 19.1913 18.3609 19.1913C18.8207 19.1913 19.1943 18.8198 19.1943 18.353C19.1943 17.8862 18.8207 17.5148 18.3609 17.5148Z" fill="currentColor"/>
</svg>
