<svg viewBox="0 0 24 24" fill="none" xmlns="http://www.w3.org/2000/svg">
<path fill-rule="evenodd" clip-rule="evenodd" d="M2.25002 12C2.25002 6.61522 6.61524 2.25 12 2.25C17.3848 2.25 21.75 6.61522 21.75 12C21.75 17.3848 17.3848 21.75 12 21.75C10.2118 21.75 8.53426 21.268 7.09231 20.4265L3.23719 21.7115C2.96769 21.8013 2.67056 21.7312 2.46969 21.5303C2.26882 21.3295 2.19867 21.0323 2.28851 20.7628L3.57355 16.9077C2.73207 15.4658 2.25002 13.7882 2.25002 12ZM12 3.75C7.44367 3.75 3.75002 7.44365 3.75002 12C3.75002 13.6246 4.21885 15.1374 5.0283 16.4132C5.1491 16.6036 5.17783 16.8383 5.10652 17.0522L4.18587 19.8141L6.94782 18.8935C7.16174 18.8222 7.39639 18.8509 7.58679 18.9717C8.86259 19.7812 10.3754 20.25 12 20.25C16.5564 20.25 20.25 16.5563 20.25 12C20.25 7.44365 16.5564 3.75 12 3.75Z" fill="currentColor"/>
<path d="M13 12C13 12.5523 12.5523 13 12 13C11.4477 13 11 12.5523 11 12C11 11.4477 11.4477 11 12 11C12.5523 11 13 11.4477 13 12Z" fill="currentColor"/>
<path d="M17 12C17 12.5523 16.5523 13 16 13C15.4477 13 15 12.5523 15 12C15 11.4477 15.4477 11 16 11C16.5523 11 17 11.4477 17 12Z" fill="currentColor"/>
<path d="M9.00002 12C9.00002 12.5523 8.55231 13 8.00002 13C7.44774 13 7.00002 12.5523 7.00002 12C7.00002 11.4477 7.44774 11 8.00002 11C8.55231 11 9.00002 11.4477 9.00002 12Z" fill="currentColor"/>
</svg>
