<svg viewBox="0 0 24 25" fill="none" xmlns="http://www.w3.org/2000/svg">
<path fill-rule="evenodd" fill="currentColor" clip-rule="evenodd" d="M12.4308 4.10118C13.3025 3.77161 14.4639 3.58472 15.7333 3.58472C17.0028 3.58472 18.1641 3.77161 19.0359 4.10118C19.4692 4.265 19.87 4.47865 20.1755 4.75505C20.4821 5.0324 20.75 5.42993 20.75 5.93472L20.75 13.9339V16.068C20.75 16.8913 20.1197 17.6216 19.4051 18.0943C18.641 18.5997 17.5911 18.9514 16.3787 18.9514C15.0714 18.9514 14.0381 18.7619 13.2616 18.4554C13.1993 18.82 13.0102 19.143 12.7894 19.4039C12.5119 19.7319 12.1343 20.0236 11.698 20.2658C10.8232 20.7515 9.62969 21.0847 8.26667 21.0847C6.90364 21.0847 5.71018 20.7515 4.8353 20.2658C4.39906 20.0236 4.02144 19.7319 3.74389 19.4039C3.47306 19.0839 3.25 18.6704 3.25 18.2014V11.3107C3.25 10.8188 3.49372 10.4188 3.79764 10.1277C4.09735 9.8406 4.49317 9.61896 4.92515 9.4493C5.79266 9.10857 6.95849 8.91805 8.26667 8.91805C9.16752 8.91805 10.0015 9.00338 10.7167 9.16438V5.93472C10.7167 5.42993 10.9846 5.0324 11.2912 4.75505C11.5967 4.47865 11.9974 4.265 12.4308 4.10118ZM12.2328 5.93472C12.2458 5.91823 12.2661 5.89576 12.2975 5.86738C12.4153 5.76078 12.6292 5.62976 12.9612 5.50426C13.6201 5.25516 14.5921 5.08472 15.7333 5.08472C16.8746 5.08472 17.8465 5.25516 18.5054 5.50426C18.8374 5.62976 19.0513 5.76078 19.1692 5.86738C19.2005 5.89576 19.2209 5.91823 19.2339 5.93472C19.2209 5.95121 19.2005 5.97368 19.1692 6.00205C19.0513 6.10865 18.8374 6.23967 18.5054 6.36518C17.8465 6.61427 16.8746 6.78472 15.7333 6.78472C14.5921 6.78472 13.6201 6.61427 12.9612 6.36518C12.6292 6.23967 12.4153 6.10865 12.2975 6.00205C12.2661 5.97368 12.2458 5.95121 12.2328 5.93472ZM19.25 7.68194C19.1797 7.71214 19.1083 7.7409 19.0359 7.76826C18.1641 8.09783 17.0028 8.28472 15.7333 8.28472C14.4639 8.28472 13.3025 8.09783 12.4308 7.76826C12.3584 7.7409 12.2869 7.71214 12.2167 7.68194V8.5924C12.2226 8.60583 12.2417 8.63804 12.2963 8.68921C12.4053 8.79147 12.6075 8.91925 12.9316 9.04198C13.5761 9.28601 14.546 9.45138 15.7333 9.45138C16.9206 9.45138 17.8906 9.28601 18.5351 9.04198C18.8592 8.91925 19.0614 8.79147 19.1704 8.68921C19.2249 8.63804 19.2441 8.60583 19.25 8.5924V7.68194ZM19.25 10.3711C19.1896 10.3968 19.1283 10.4213 19.0662 10.4448C18.2001 10.7728 17.0367 10.9514 15.7333 10.9514C14.7792 10.9514 13.9001 10.8557 13.1577 10.6757C13.2363 10.8541 13.2833 11.052 13.2833 11.2681V11.7772C13.9696 11.9588 14.8885 12.1181 15.7333 12.1181C16.9206 12.1181 17.8906 11.9527 18.5351 11.7086C18.8592 11.5859 19.0614 11.4581 19.1704 11.3559C19.2249 11.3047 19.2441 11.2725 19.25 11.2591L19.25 10.3711ZM19.25 13.0377C19.1896 13.0634 19.1283 13.088 19.0662 13.1115C18.2001 13.4394 17.0367 13.6181 15.7333 13.6181C14.8954 13.6181 14.017 13.4892 13.2833 13.3216V14.5064C13.8361 14.6938 14.5851 14.7847 15.7333 14.7847C16.9206 14.7847 17.8906 14.6193 18.5351 14.3753C18.8592 14.2526 19.0614 14.1248 19.1704 14.0225C19.2249 13.9714 19.2441 13.9392 19.25 13.9257V13.0377ZM19.25 15.7044C19.1896 15.7301 19.1283 15.7546 19.0662 15.7781C18.2001 16.1061 17.0367 16.2847 15.7333 16.2847C14.7747 16.2847 13.9747 16.2275 13.2833 16.0641V16.7869C13.7313 17.0935 14.6725 17.4514 16.3787 17.4514C17.3049 17.4514 18.0657 17.1818 18.5776 16.8432C19.139 16.4719 19.25 16.1355 19.25 16.068V15.7044ZM11.7833 16.0591C11.7774 16.0725 11.7582 16.1047 11.7037 16.1559C11.5947 16.2581 11.3925 16.3859 11.0684 16.5086C10.4239 16.7527 9.45396 16.918 8.26667 16.918C7.07937 16.918 6.10941 16.7527 5.46491 16.5086C5.14078 16.3859 4.9386 16.2581 4.82962 16.1559C4.77508 16.1047 4.75593 16.0725 4.75 16.0591V15.1711C4.81043 15.1968 4.87174 15.2213 4.93375 15.2448C5.79992 15.5728 6.96329 15.7514 8.26667 15.7514C9.57004 15.7514 10.7334 15.5728 11.5996 15.2448C11.6616 15.2213 11.7229 15.1968 11.7833 15.1711V16.0591ZM11.7833 13.3924C11.7774 13.4058 11.7582 13.438 11.7037 13.4892C11.5947 13.5915 11.3925 13.7193 11.0684 13.842C10.4239 14.086 9.45396 14.2514 8.26667 14.2514C7.07937 14.2514 6.10941 14.086 5.46491 13.842C5.14079 13.7193 4.9386 13.5915 4.82962 13.4892C4.77508 13.438 4.75593 13.4058 4.75 13.3924V13.0614C4.8133 13.0875 4.87753 13.1124 4.94248 13.136C5.80719 13.4512 6.9681 13.618 8.26667 13.618C9.57004 13.618 10.7334 13.4394 11.5996 13.1115C11.6616 13.088 11.7229 13.0634 11.7833 13.0377V13.3924ZM11.7788 11.2681C11.7694 11.2846 11.7485 11.3138 11.7037 11.3559C11.5947 11.4581 11.3925 11.5859 11.0684 11.7086C10.4239 11.9527 9.45396 12.118 8.26667 12.118C7.07457 12.118 6.10214 11.9622 5.45619 11.7267C5.13121 11.6083 4.93069 11.4847 4.82387 11.3865C4.78377 11.3497 4.76397 11.3237 4.75463 11.3084C4.76399 11.2906 4.78594 11.2581 4.8352 11.2109C4.94631 11.1045 5.15016 10.9725 5.47352 10.8455C6.11667 10.5929 7.08417 10.4181 8.26667 10.4181C9.45396 10.4181 10.4239 10.5834 11.0684 10.8275C11.3925 10.9502 11.5947 11.078 11.7037 11.1802C11.7485 11.2223 11.7694 11.2515 11.7788 11.2681ZM4.74705 11.292C4.74705 11.292 4.74822 11.294 4.74895 11.2979C4.74716 11.294 4.74705 11.292 4.74705 11.292ZM11.7833 17.8377V18.2006C11.7833 18.2006 11.7747 18.281 11.6444 18.435C11.5111 18.5925 11.2891 18.7772 10.97 18.9543C10.3342 19.3073 9.39431 19.5847 8.26667 19.5847C7.13902 19.5847 6.19916 19.3073 5.56337 18.9543C5.24428 18.7772 5.02222 18.5925 4.88894 18.435C4.75861 18.281 4.75003 18.2 4.75003 18.2L4.75 17.8377C4.81043 17.8634 4.87174 17.888 4.93375 17.9115C5.79992 18.2394 6.96329 18.418 8.26667 18.418C9.57004 18.418 10.7334 18.2394 11.5996 17.9115C11.6616 17.888 11.7229 17.8634 11.7833 17.8377Z" />
</svg>
