<svg viewBox="0 0 24 24" fill="none" xmlns="http://www.w3.org/2000/svg">
<path fill-rule="evenodd" clip-rule="evenodd" d="M6.68022 19.3588C6.38732 19.0659 6.38732 18.591 6.68022 18.2981L17.798 7.1803C18.0909 6.8874 18.5658 6.8874 18.8587 7.1803C19.1516 7.47319 19.1516 7.94806 18.8587 8.24096L7.74088 19.3588C7.44798 19.6517 6.97311 19.6517 6.68022 19.3588Z" fill="currentColor"/>
<path fill-rule="evenodd" clip-rule="evenodd" d="M6.46969 14.5304C6.1768 14.2375 6.1768 13.7626 6.46969 13.4697L12.9697 6.96974C13.2626 6.67684 13.7375 6.67684 14.0303 6.96974C14.3232 7.26263 14.3232 7.7375 14.0303 8.0304L7.53035 14.5304C7.23746 14.8233 6.76258 14.8233 6.46969 14.5304Z" fill="currentColor"/>
<path fill-rule="evenodd" clip-rule="evenodd" d="M5.96967 10.0303C5.67678 9.73744 5.67678 9.26256 5.96967 8.96967L8.46967 6.46967C8.76256 6.17678 9.23744 6.17678 9.53033 6.46967C9.82322 6.76256 9.82322 7.23744 9.53033 7.53033L7.03033 10.0303C6.73744 10.3232 6.26256 10.3232 5.96967 10.0303Z" fill="currentColor"/>
</svg>
