<svg viewBox="0 0 24 24" fill="none" xmlns="http://www.w3.org/2000/svg">
<path fill-rule="evenodd" clip-rule="evenodd" d="M13.0467 15.391C12.3581 15.391 11.7999 15.9492 11.7999 16.6378C11.7999 17.3263 12.3581 17.8845 13.0467 17.8845C13.7353 17.8845 14.2935 17.3263 14.2935 16.6378C14.2935 15.9492 13.7353 15.391 13.0467 15.391ZM10.2999 16.6378C10.2999 15.1207 11.5297 13.891 13.0467 13.891C14.5637 13.891 15.7935 15.1207 15.7935 16.6378C15.7935 18.1548 14.5637 19.3845 13.0467 19.3845C11.5297 19.3845 10.2999 18.1548 10.2999 16.6378Z" fill="currentColor"/>
<path fill-rule="evenodd" clip-rule="evenodd" d="M7.20131 13.2493C6.87737 13.2493 6.61476 13.5119 6.61476 13.8358C6.61476 14.1598 6.87737 14.4224 7.20131 14.4224C7.52526 14.4224 7.78786 14.1598 7.78786 13.8358C7.78786 13.5119 7.52526 13.2493 7.20131 13.2493ZM5.11476 13.8358C5.11476 12.6834 6.04894 11.7493 7.20131 11.7493C8.35368 11.7493 9.28786 12.6834 9.28786 13.8358C9.28786 14.9882 8.35368 15.9224 7.20131 15.9224C6.04894 15.9224 5.11476 14.9882 5.11476 13.8358Z" fill="currentColor"/>
<path d="M11.0498 11.7779C11.6477 11.7779 12.1323 11.2932 12.1323 10.6954C12.1323 10.0975 11.6477 9.61287 11.0498 9.61287C10.452 9.61287 9.96731 10.0975 9.96731 10.6954C9.96731 11.2932 10.452 11.7779 11.0498 11.7779Z" fill="currentColor"/>
<path fill-rule="evenodd" clip-rule="evenodd" d="M12.7661 3.95989C12.7661 3.96708 12.7661 3.97403 12.7661 3.98075C12.7661 5.54721 14.0406 6.82173 15.6071 6.82173C15.8233 6.82173 16.0357 6.79616 16.2304 6.7475C16.474 6.68659 16.732 6.75167 16.9176 6.92087C17.1031 7.09007 17.1917 7.34093 17.1535 7.58915C17.122 7.79434 17.0978 7.98746 17.0978 8.15144C17.0978 9.7179 18.3724 10.9924 19.9388 10.9924C20.2806 10.9924 20.6102 10.9292 20.9154 10.8147C21.1457 10.7284 21.4038 10.7604 21.606 10.9005C21.8081 11.0406 21.9288 11.271 21.9288 11.517C21.9288 11.5756 21.9317 11.6374 21.9359 11.7211L21.9362 11.7278C21.94 11.8042 21.9449 11.9006 21.9449 12.0001C21.9449 17.4867 17.4867 21.9449 12 21.9449C6.51334 21.9449 2.05518 17.4867 2.05518 12.0001C2.05518 6.64547 5.45909 2.05416 10.7613 2.07133H11.6183C12.0104 2.06233 12.2988 2.27156 12.4645 2.50467C12.6091 2.70819 12.6713 2.9373 12.7033 3.09694C12.7664 3.41273 12.7662 3.76892 12.7661 3.95989ZM11.2553 3.57133C11.2575 3.60012 11.2594 3.63058 11.2609 3.6626C11.266 3.77145 11.2661 3.87857 11.2661 3.98075C11.2661 6.37365 13.209 8.3185 15.6011 8.32172C15.6908 10.6379 17.601 12.4924 19.9388 12.4924C20.1055 12.4924 20.2702 12.4827 20.4323 12.4638C20.191 16.907 16.5027 20.4449 12 20.4449C7.34177 20.4449 3.55518 16.6583 3.55518 12.0001C3.55518 7.21018 6.52752 3.55703 10.7576 3.57132L11.2553 3.57133Z" fill="currentColor"/>
</svg>
