<svg viewBox="0 0 24 24" fill="none" xmlns="http://www.w3.org/2000/svg">
<path fill-rule="evenodd" clip-rule="evenodd" d="M3.5 4.25024C3.5 3.83603 3.83579 3.50024 4.25 3.50024H15.7284C16.1426 3.50024 16.4784 3.83603 16.4784 4.25024V7.50642H19.7496C20.1638 7.50642 20.4996 7.84221 20.4996 8.25642V19.7498C20.4996 20.164 20.1638 20.4998 19.7496 20.4998H8.25618C7.84196 20.4998 7.50618 20.164 7.50618 19.7498V16.4786H4.25C3.83579 16.4786 3.5 16.1428 3.5 15.7286V4.25024ZM9.00618 16.4786V18.9998H18.9996V9.00642H16.4784V15.7286C16.4784 16.1428 16.1426 16.4786 15.7284 16.4786H9.00618ZM5 5.00024V14.9786H14.9784V5.00024H5Z" fill="currentColor"/>
</svg>
