<svg viewBox="0 0 24 24" fill="none" xmlns="http://www.w3.org/2000/svg">
<path fill-rule="evenodd" clip-rule="evenodd" d="M2.76758 5.69995C2.76758 5.28574 3.10336 4.94995 3.51758 4.94995H17.4826C17.7279 4.94995 17.9577 5.0699 18.0979 5.27115L21.0979 9.57615C21.1856 9.70196 21.2326 9.85161 21.2326 10.005V18.3C21.2326 18.7142 20.8968 19.05 20.4826 19.05H3.51758C3.10336 19.05 2.76758 18.7142 2.76758 18.3V5.69995ZM4.26758 6.44995V17.55H19.7326V10.2405L17.0911 6.44995H4.26758Z" fill="currentColor"/>
<path fill-rule="evenodd" clip-rule="evenodd" d="M6.24707 15.6148V9.08984H7.74707V15.6148H6.24707Z" fill="currentColor"/>
<path fill-rule="evenodd" clip-rule="evenodd" d="M15.6978 15.615V9.08997H17.1978V15.615H15.6978Z" fill="currentColor"/>
<path fill-rule="evenodd" clip-rule="evenodd" d="M13.2002 15.615V9.08997H14.3252V15.615H13.2002Z" fill="currentColor"/>
<path fill-rule="evenodd" clip-rule="evenodd" d="M8.85742 15.6148V9.08984H11.8574V15.6148H8.85742Z" fill="currentColor"/>
</svg>
