<svg viewBox="0 0 24 25" fill="none" xmlns="http://www.w3.org/2000/svg">
<path fill-rule="evenodd" clip-rule="evenodd" d="M4.08871 5.58496H17.2339V9.29925H19.8245L22.1371 11.2691V16.6802H20.2924C20.2964 16.7392 20.2984 16.7988 20.2984 16.8588C20.2984 18.2935 19.1483 19.4659 17.7097 19.4659C16.5322 19.4659 15.548 18.6806 15.2295 17.6088H10.3834C10.0649 18.6806 9.08072 19.4659 7.90323 19.4659C6.72573 19.4659 5.74158 18.6806 5.42306 17.6088H4.08871V12.6564H3.6129C3.19869 12.6564 2.8629 12.3206 2.8629 11.9064C2.8629 11.4922 3.19869 11.1564 3.6129 11.1564H4.08871V10.7867C3.73997 10.7223 3.47581 10.4166 3.47581 10.0492C3.47581 9.68186 3.73997 9.37617 4.08871 9.31175V8.9421H3C2.58579 8.9421 2.25 8.60632 2.25 8.1921C2.25 7.77789 2.58579 7.4421 3 7.4421H4.08871V5.58496ZM5.58871 8.9421H8.51613C8.93034 8.9421 9.26613 8.60632 9.26613 8.1921C9.26613 7.77789 8.93034 7.4421 8.51613 7.4421H5.58871V7.08496H15.7339L15.7339 15.0016C15.7339 15.002 15.7339 15.0024 15.7339 15.0028V15.1727C15.5064 15.4432 15.3329 15.7609 15.2295 16.1088H10.3834C10.0649 15.037 9.08072 14.2516 7.90323 14.2516C6.88583 14.2516 6.01277 14.8379 5.58871 15.6887V12.6564H7.29032C7.70454 12.6564 8.04032 12.3206 8.04032 11.9064C8.04032 11.4922 7.70454 11.1564 7.29032 11.1564H5.58871V10.7992H10.9677C11.382 10.7992 11.7177 10.4635 11.7177 10.0492C11.7177 9.63503 11.382 9.29925 10.9677 9.29925H5.58871V8.9421ZM17.2339 14.2953C17.388 14.2666 17.547 14.2516 17.7097 14.2516C18.5085 14.2516 19.2183 14.6131 19.6917 15.1802H20.6371V11.9618L19.2723 10.7992H17.2339V14.2953ZM7.90323 15.7516C7.30706 15.7516 6.81452 16.2383 6.81452 16.8588C6.81452 17.4792 7.30706 17.9659 7.90323 17.9659C8.4994 17.9659 8.99194 17.4792 8.99194 16.8588C8.99194 16.2383 8.4994 15.7516 7.90323 15.7516ZM17.7097 15.7516C17.1135 15.7516 16.621 16.2383 16.621 16.8588C16.621 17.4792 17.1135 17.9659 17.7097 17.9659C18.3058 17.9659 18.7984 17.4792 18.7984 16.8588C18.7984 16.2383 18.3058 15.7516 17.7097 15.7516Z" fill="currentColor"/>
</svg>
