<svg viewBox="0 0 24 24" fill="none" xmlns="http://www.w3.org/2000/svg">
<path fill-rule="evenodd" clip-rule="evenodd" d="M12.3427 4.71045C12.3427 4.29624 12.6785 3.96045 13.0927 3.96045H19.2954C19.7096 3.96045 20.0454 4.29624 20.0454 4.71045V10.9627C20.0454 11.3769 19.7096 11.7127 19.2954 11.7127C18.8812 11.7127 18.5454 11.3769 18.5454 10.9627V6.53135L11.0736 14.0628C10.7819 14.3569 10.307 14.3588 10.013 14.067C9.71893 13.7753 9.71704 13.3004 10.0088 13.0064L17.4949 5.46045H13.0927C12.6785 5.46045 12.3427 5.12466 12.3427 4.71045ZM3.95508 6.77395H10.5412C10.9554 6.77395 11.2912 7.10973 11.2912 7.52395C11.2912 7.93816 10.9554 8.27395 10.5412 8.27395H5.45508V18.5395H15.6273V13.4067C15.6273 12.9925 15.9631 12.6567 16.3773 12.6567C16.7915 12.6567 17.1273 12.9925 17.1273 13.4067V20.0395H3.95508V6.77395Z" fill="currentColor"/>
</svg>
