<svg viewBox="0 0 24 24" fill="none" xmlns="http://www.w3.org/2000/svg">
<path fill-rule="evenodd" clip-rule="evenodd" d="M14.8999 16.75L5.8999 16.75L5.8999 15.25L14.8999 15.25V16.75Z" fill="currentColor"/>
<path fill-rule="evenodd" clip-rule="evenodd" d="M16.7499 14.8101C16.1313 14.8101 15.6299 15.3115 15.6299 15.9301C15.6299 16.5486 16.1313 17.0501 16.7499 17.0501C17.3684 17.0501 17.8699 16.5486 17.8699 15.9301C17.8699 15.3115 17.3684 14.8101 16.7499 14.8101ZM14.1299 15.9301C14.1299 14.4831 15.3029 13.3101 16.7499 13.3101C18.1969 13.3101 19.3699 14.4831 19.3699 15.9301C19.3699 17.377 18.1969 18.5501 16.7499 18.5501C15.3029 18.5501 14.1299 17.377 14.1299 15.9301Z" fill="currentColor"/>
<path fill-rule="evenodd" clip-rule="evenodd" d="M8.99991 7.25L17.9999 7.25V8.75L8.99991 8.75V7.25Z" fill="currentColor"/>
<path fill-rule="evenodd" clip-rule="evenodd" d="M7.2699 6.75C6.65134 6.75 6.1499 7.25144 6.1499 7.87C6.1499 8.48856 6.65134 8.99 7.2699 8.99C7.88846 8.99 8.3899 8.48856 8.3899 7.87C8.3899 7.25144 7.88846 6.75 7.2699 6.75ZM4.6499 7.87C4.6499 6.42301 5.82292 5.25 7.2699 5.25C8.71689 5.25 9.8899 6.42301 9.8899 7.87C9.8899 9.31699 8.71689 10.49 7.2699 10.49C5.82292 10.49 4.6499 9.31699 4.6499 7.87Z" fill="currentColor"/>
</svg>
