<svg viewBox="0 0 24 24" fill="none" xmlns="http://www.w3.org/2000/svg">
<path fill-rule="evenodd" clip-rule="evenodd" d="M13.3314 15.3538H15V9.33387H9V15.3538H10.6686V22.5H13.3314V15.3538ZM13.4629 6.33387C14.2526 5.82468 14.7781 4.91795 14.7781 3.88419C14.7781 2.29129 13.5303 1 11.9911 1C10.4519 1 9.20414 2.29129 9.20414 3.88419C9.20414 4.91795 9.72968 5.82468 10.5194 6.33387C10.9465 6.60927 11.4508 6.76837 11.9911 6.76837C12.5314 6.76837 13.0358 6.60927 13.4629 6.33387ZM8.56509 7.83387C7.97929 7.83387 7.5 8.32987 7.5 8.9361V15.7516C7.5 16.3578 7.97929 16.8538 8.56509 16.8538H9.16864V22.8978C9.16864 23.504 9.63018 24 10.2337 24H13.7663C14.3521 24 14.8314 23.504 14.8314 22.8978V16.8538H15.4349C16.0207 16.8538 16.5 16.3578 16.5 15.7516V8.9361C16.5 8.32987 16.0207 7.83387 15.4349 7.83387H8.56509ZM11.9911 5.26837C12.6538 5.26837 13.2781 4.69754 13.2781 3.88419C13.2781 3.07083 12.6538 2.5 11.9911 2.5C11.3284 2.5 10.7041 3.07083 10.7041 3.88419C10.7041 4.69754 11.3284 5.26837 11.9911 5.26837Z" fill="currentColor"/>
</svg>
