<svg viewBox="0 0 24 24" fill="none" xmlns="http://www.w3.org/2000/svg">
<path fill-rule="evenodd" clip-rule="evenodd" d="M16.4324 2.70509C16.6347 2.84517 16.7555 3.07564 16.7555 3.32178V7.35465H20.7038C21.118 7.35465 21.4538 7.69044 21.4538 8.10465V20.6617C21.4538 21.076 21.118 21.4117 20.7038 21.4117H3.29639C2.88217 21.4117 2.54639 21.076 2.54639 20.6617V8.10465C2.54639 7.79234 2.73992 7.51272 3.03222 7.40271L15.7414 2.61984C15.9717 2.53315 16.23 2.56501 16.4324 2.70509ZM15.2555 7.35465V4.40538L7.41867 7.35465H15.2555ZM4.04639 8.85465H19.9538V19.9117H4.04639V8.85465ZM11.0076 12.2096C10.5696 11.7577 9.87896 11.7577 9.44104 12.2096C8.99028 12.6748 8.99028 13.429 9.44104 13.8942L9.44237 13.8955L12.0174 16.5666L14.6069 13.8942C15.0577 13.429 15.0577 12.6748 14.6069 12.2096C14.169 11.7577 13.4783 11.7577 13.0404 12.2096L12.5626 12.7027C12.4213 12.8485 12.227 12.9308 12.024 12.9308C11.821 12.9308 11.6266 12.8485 11.4853 12.7027L11.0076 12.2096ZM12.024 11.105C10.9927 10.106 9.37106 10.1263 8.36381 11.1658C7.34962 12.2124 7.34935 13.8902 8.363 14.9371L8.36381 14.938L11.4681 18.1581C11.6094 18.3047 11.8044 18.3875 12.008 18.3875H12.024C12.227 18.3875 12.4213 18.3052 12.5626 18.1594L15.6841 14.938C16.6986 13.8911 16.6986 12.2127 15.6841 11.1658C14.6769 10.1263 13.0552 10.106 12.024 11.105Z" fill="currentColor"/>
</svg>
