<svg viewBox="0 0 24 24" fill="none" xmlns="http://www.w3.org/2000/svg">
<path fill-rule="evenodd" clip-rule="evenodd" d="M8.14286 3.75C7.81404 3.75 7.47039 3.90145 7.19707 4.22033C6.92069 4.54278 6.75 5.00172 6.75 5.5C6.75 5.99828 6.92069 6.45722 7.19707 6.77967C7.47039 7.09855 7.81404 7.25 8.14286 7.25H11.0492C10.9292 6.83373 10.7557 6.32386 10.518 5.81981C9.94557 4.60551 9.16592 3.75 8.14286 3.75ZM11.25 8.75V10.25H4C3.86193 10.25 3.75 10.1381 3.75 10V9C3.75 8.86193 3.86193 8.75 4 8.75H11.25ZM5.7036 7.25C5.40594 6.72535 5.25 6.11683 5.25 5.5C5.25 4.6722 5.53084 3.85937 6.05819 3.24414C6.58859 2.62533 7.33504 2.25 8.14286 2.25C10.1198 2.25 11.2687 3.89449 11.8748 5.18019C11.9185 5.27281 11.9602 5.36529 12 5.4572C12.0398 5.36529 12.0815 5.27281 12.1252 5.18019C12.7313 3.89449 13.8802 2.25 15.8571 2.25C16.665 2.25 17.4114 2.62533 17.9418 3.24414C18.4692 3.85937 18.75 4.6722 18.75 5.5C18.75 6.11683 18.5941 6.72535 18.2964 7.25H20C20.9665 7.25 21.75 8.0335 21.75 9V10C21.75 10.9665 20.9665 11.75 20 11.75H19.75V19C19.75 20.5188 18.5188 21.75 17 21.75H7C5.48122 21.75 4.25 20.5188 4.25 19V11.75H4C3.0335 11.75 2.25 10.9665 2.25 10V9C2.25 8.0335 3.0335 7.25 4 7.25H5.7036ZM5.75 11.75V19C5.75 19.6904 6.30964 20.25 7 20.25H11.25V11.75H5.75ZM12.75 11.75V20.25H17C17.6904 20.25 18.25 19.6904 18.25 19V11.75H12.75ZM12.75 8.75V10.25H20C20.1381 10.25 20.25 10.1381 20.25 10V9C20.25 8.86193 20.1381 8.75 20 8.75H12.75ZM15.8571 7.25C16.186 7.25 16.5296 7.09855 16.8029 6.77967C17.0793 6.45722 17.25 5.99828 17.25 5.5C17.25 5.00172 17.0793 4.54278 16.8029 4.22033C16.5296 3.90145 16.186 3.75 15.8571 3.75C14.8341 3.75 14.0544 4.60551 13.482 5.81981C13.2443 6.32386 13.0708 6.83373 12.9508 7.25H15.8571Z" fill="currentColor"/>
</svg>
