<svg viewBox="0 0 24 24" fill="none" xmlns="http://www.w3.org/2000/svg">
<path fill-rule="evenodd" clip-rule="evenodd" d="M3.78366 11.244H6.45105C6.54813 8.95483 7.08651 6.86643 7.93446 5.28145C8.05988 5.04702 8.19414 4.8203 8.33688 4.60352C5.83078 5.84603 4.04683 8.32573 3.78366 11.244ZM11.994 2.25C6.61254 2.25 2.25 6.61254 2.25 11.994C2.25 17.3755 6.61254 21.738 11.994 21.738C17.3755 21.738 21.738 17.3755 21.738 11.994C21.738 6.61254 17.3755 2.25 11.994 2.25ZM11.244 3.90517C10.5546 4.18915 9.85654 4.86852 9.25708 5.98904C8.54014 7.32913 8.04877 9.16685 7.95251 11.244H11.244V3.90517ZM11.244 12.744H7.95241C8.04818 14.8218 8.53724 16.6596 9.25283 17.9994C9.85191 19.1212 10.551 19.8011 11.244 20.0843V12.744ZM8.32945 19.3808C8.18767 19.165 8.05431 18.9394 7.92971 18.7061C7.08311 17.1209 6.54753 15.0326 6.45097 12.744H3.78366C4.04657 15.6594 5.82725 18.1371 8.32945 19.3808ZM15.6586 19.3808C18.1608 18.1371 19.9414 15.6594 20.2044 12.744H17.537C17.4405 15.0326 16.9049 17.1209 16.0583 18.7061C15.9337 18.9394 15.8003 19.165 15.6586 19.3808ZM16.0356 12.744H12.744V20.0843C13.437 19.8011 14.1361 19.1212 14.7352 17.9994C15.4508 16.6596 15.9398 14.8218 16.0356 12.744ZM16.0355 11.244H12.744V3.90517C13.4334 4.18915 14.1315 4.86852 14.7309 5.98904C15.4479 7.32913 15.9392 9.16685 16.0355 11.244ZM17.537 11.244C17.4399 8.95483 16.9015 6.86643 16.0535 5.28145C15.9281 5.04702 15.7939 4.8203 15.6511 4.60352C18.1572 5.84603 19.9412 8.32573 20.2044 11.244H17.537Z" fill="currentColor"/>
</svg>
