<svg viewBox="0 0 24 24" fill="none" xmlns="http://www.w3.org/2000/svg">
<path fill-rule="evenodd" clip-rule="evenodd" d="M21.7159 7.75573L21.7167 7.7566C21.7765 7.81811 21.8267 7.88551 21.8676 7.95694C22.0869 8.34038 22.0338 8.83981 21.7084 9.16713L19.2863 11.6089C19.1586 11.7409 18.9975 11.8319 18.8227 11.8755C18.7451 11.8948 18.6648 11.9047 18.5836 11.9047C18.3195 11.9097 18.0703 11.8045 17.8809 11.6139L17.3227 11.0524V19.9972C17.3227 20.5538 16.8742 21 16.3259 21H7.67904C7.13083 21 6.68228 20.5487 6.68228 19.9972V11.0524L6.1241 11.6139C5.9397 11.8045 5.68552 11.9097 5.42138 11.9097C5.34021 11.9097 5.25998 11.8998 5.18228 11.8805C5.00714 11.837 4.84487 11.7459 4.71368 11.6139L2.29155 9.17214C1.90282 8.78106 1.90282 8.14429 2.29155 7.7532L6.73212 3.29582C6.95141 3.08022 7.26539 2.96992 7.56442 3.01003C7.60429 3 7.64914 3 7.68901 3H8.92001C9.25891 3 9.57289 3.17047 9.75729 3.45627C10.151 4.06295 11.0331 4.45905 12.01 4.45905C12.9868 4.45905 13.8689 4.06797 14.2626 3.45627C14.447 3.17047 14.761 3 15.0999 3H16.3309C16.3708 3 16.4156 3.00501 16.4555 3.01003C16.4954 3 16.5402 3 16.5801 3C16.8443 3 17.0934 3.10529 17.2828 3.29582L21.7184 7.7532L21.7084 7.74819C21.7109 7.75069 21.7134 7.75321 21.7159 7.75573ZM20.6467 8.80275L20.605 8.76085C20.6171 8.77635 20.6303 8.79131 20.6446 8.80565L20.6467 8.80275ZM20.3013 8.45571L18.5807 10.1903L15.8227 7.41556V19.5H8.18228V7.41556L5.41926 10.1953L3.70134 8.46342L7.61912 4.5308L7.65071 4.53504L7.79003 4.5H8.66135C9.45373 5.51051 10.8018 5.95905 12.01 5.95905C13.2112 5.95905 14.5639 5.5188 15.3593 4.5H16.2818L16.3769 4.51195L20.3013 8.45571Z" fill="currentColor"/>
</svg>
