<svg viewBox="0 0 24 24" fill="none" xmlns="http://www.w3.org/2000/svg">
<path fill-rule="evenodd" clip-rule="evenodd" d="M11.9982 11.9738L4.36365 17.6278H19.6327L11.9982 11.9738ZM12.8375 10.7289C12.3464 10.3574 11.65 10.3574 11.1589 10.7289L3.06471 16.7236L3.05907 16.728C2.55176 17.1193 2.42567 17.738 2.61714 18.2474C2.8062 18.7502 3.29426 19.1278 3.91317 19.1278H20.0832C20.7105 19.1278 21.2006 18.7445 21.3865 18.2361C21.5728 17.7265 21.4435 17.1038 20.9264 16.7197L17.4015 14.1058L12.8375 10.7289Z" fill="currentColor"/>
<path fill-rule="evenodd" clip-rule="evenodd" d="M12.0972 6.39014C11.6098 6.39014 11.2104 6.78428 11.2104 7.27694C11.2104 7.69115 10.8746 8.02694 10.4604 8.02694C10.0461 8.02694 9.71036 7.69115 9.71036 7.27694C9.71036 5.94799 10.7893 4.89014 12.0972 4.89014C13.409 4.89014 14.484 5.96512 14.484 7.27694C14.484 8.32711 13.795 9.22551 12.8472 9.5421V10.8673C12.8472 11.2816 12.5114 11.6173 12.0972 11.6173C11.6829 11.6173 11.3472 11.2816 11.3472 10.8673V8.91374C11.3472 8.49952 11.6829 8.16374 12.0972 8.16374C12.5805 8.16374 12.984 7.76032 12.984 7.27694C12.984 6.79355 12.5805 6.39014 12.0972 6.39014Z" fill="currentColor"/>
</svg>
