<svg viewBox="0 0 24 24" fill="none" xmlns="http://www.w3.org/2000/svg">
<path fill-rule="evenodd" clip-rule="evenodd" d="M11.5681 4.89001L11.5694 4.89123L12.0087 5.31534L12.4514 4.888C14.6971 2.72689 18.3178 2.72576 20.5586 4.88881L20.5594 4.88961C22.813 7.07181 22.8143 10.6117 20.5586 12.7891L12.5296 20.5396C12.239 20.8201 11.7784 20.8201 11.4878 20.5396L3.42858 12.7599L3.42608 12.7575C1.17867 10.5678 1.19232 7.02723 3.46137 4.85717C5.71403 2.70278 9.3344 2.71495 11.5681 4.89001ZM10.5226 5.96559C8.86886 4.35431 6.1687 4.34351 4.49812 5.94121C2.84391 7.52325 2.83294 10.084 4.47165 11.6819L12.0087 18.9576L19.5168 11.7099C21.1604 10.1233 21.1618 7.56134 19.5164 5.96764C17.8578 4.36697 15.1575 4.36588 13.4918 5.96858L12.5296 6.89737C12.239 7.1779 11.7784 7.1779 11.4878 6.89738L10.5226 5.96559Z" fill="currentColor"/>
</svg>
