<svg viewBox="0 0 24 24" fill="none" xmlns="http://www.w3.org/2000/svg">
<path fill-rule="evenodd" clip-rule="evenodd" d="M11.5681 4.89001L11.5694 4.89123L12.0087 5.31534L12.4514 4.888C14.6971 2.72689 18.3178 2.72576 20.5586 4.88881L20.5594 4.88961C22.813 7.07181 22.8143 10.6117 20.5586 12.7891L12.5296 20.5396C12.239 20.8201 11.7784 20.8201 11.4878 20.5396L3.42858 12.7599L3.42608 12.7575C1.17867 10.5678 1.19232 7.02723 3.46137 4.85717C5.71403 2.70278 9.3344 2.71495 11.5681 4.89001ZM10.5226 5.96559C8.86886 4.35431 6.1687 4.34351 4.49812 5.94121C2.84391 7.52325 2.83294 10.084 4.47165 11.6819L12.0087 18.9576L19.5168 11.7099C21.1604 10.1233 21.1618 7.56134 19.5164 5.96764C17.8578 4.36697 15.1575 4.36588 13.4918 5.96858L12.5296 6.89737C12.239 7.1779 11.7784 7.1779 11.4878 6.89738L10.5226 5.96559Z" fill="currentColor"/>
<path d="M19.5237 5.62331L19.5133 5.61212C17.5231 3.48502 14.2812 3.48502 12.291 5.61212L12.0134 5.90879L11.7359 5.61212C10.7722 4.57656 9.48906 4.0056 8.12736 4H8.10641C6.74995 4 5.47205 4.55976 4.50838 5.58413C3.53948 6.60849 3.00004 7.97991 3.00004 9.4353C2.9948 10.8907 3.51853 12.2677 4.50838 13.3312L11.453 20.7537C11.6049 20.916 11.8092 21 12.0082 21C12.2072 21 12.4115 20.916 12.5634 20.7537L19.508 13.3312C21.493 11.2097 21.4982 7.75601 19.5185 5.62331H19.5237Z" fill="currentColor"/>
</svg>
