<svg viewBox="0 0 24 24" fill="none" xmlns="http://www.w3.org/2000/svg">
<path fill-rule="evenodd" clip-rule="evenodd" d="M12 4.75C7.99594 4.75 4.75 7.99594 4.75 12C4.75 16.0041 7.99594 19.25 12 19.25C16.0041 19.25 19.25 16.0041 19.25 12C19.25 7.99594 16.0041 4.75 12 4.75ZM3.25 12C3.25 7.16751 7.16751 3.25 12 3.25C16.8325 3.25 20.75 7.16751 20.75 12C20.75 16.8325 16.8325 20.75 12 20.75C7.16751 20.75 3.25 16.8325 3.25 12Z" fill="currentColor"/>
<path fill-rule="evenodd" clip-rule="evenodd" d="M11.818 7.75C11.1653 7.75 10.5618 8.11133 10.1889 8.71752C9.97184 9.07031 9.50989 9.18035 9.1571 8.9633C8.80431 8.74625 8.69427 8.2843 8.91132 7.93151C9.52225 6.93852 10.5808 6.25 11.818 6.25C13.8059 6.25 15.3001 7.99619 15.3001 10C15.3001 12.0038 13.8059 13.75 11.818 13.75C11.4038 13.75 11.068 13.4142 11.068 13C11.068 12.5858 11.4038 12.25 11.818 12.25C12.8485 12.25 13.8001 11.3105 13.8001 10C13.8001 8.68947 12.8485 7.75 11.818 7.75Z" fill="currentColor"/>
<path fill-rule="evenodd" clip-rule="evenodd" d="M12 17C12.5523 17 13 16.5523 13 16C13 15.4477 12.5523 15 12 15C11.4477 15 11 15.4477 11 16C11 16.5523 11.4477 17 12 17Z" fill="currentColor"/>
</svg>
