<svg viewBox="0 0 24 24" fill="none" xmlns="http://www.w3.org/2000/svg">
<path fill-rule="evenodd" clip-rule="evenodd" d="M11.4983 2.44253C11.7835 2.18582 12.2165 2.18582 12.5017 2.44253L22.5017 11.4425C22.8096 11.7196 22.8346 12.1938 22.5575 12.5017C22.2804 12.8096 21.8062 12.8346 21.4983 12.5575L19.75 10.984V18C19.75 19.5188 18.5188 20.75 17 20.75H7.00001C5.48122 20.75 4.25001 19.5188 4.25001 18V10.984L2.50173 12.5575C2.19385 12.8346 1.71963 12.8096 1.44254 12.5017C1.16544 12.1938 1.1904 11.7196 1.49828 11.4425L11.4983 2.44253ZM5.75001 9.63402V18C5.75001 18.6904 6.30965 19.25 7.00001 19.25H17C17.6904 19.25 18.25 18.6904 18.25 18V9.63402L12 4.00902L5.75001 9.63402Z" fill="currentColor"/>
<path fill-rule="evenodd" clip-rule="evenodd" d="M11.5 13.75C10.8097 13.75 10.25 14.3096 10.25 15V20C10.25 20.4142 9.91422 20.75 9.50001 20.75C9.08579 20.75 8.75001 20.4142 8.75001 20V15C8.75001 13.4812 9.98122 12.25 11.5 12.25H12.5C14.0188 12.25 15.25 13.4812 15.25 15V20C15.25 20.4142 14.9142 20.75 14.5 20.75C14.0858 20.75 13.75 20.4142 13.75 20V15C13.75 14.3096 13.1904 13.75 12.5 13.75H11.5Z" fill="currentColor"/>
</svg>
