<svg viewBox="0 0 24 24" fill="none" xmlns="http://www.w3.org/2000/svg">
<path fill-rule="evenodd" clip-rule="evenodd" d="M6.17667 18.9034C8.03725 18.7156 11.7457 17.7904 15.3826 15.054C17.3051 13.6075 17.6594 12.0822 17.4435 10.7788C17.2167 9.41018 16.3364 8.16768 15.5671 7.44186C13.1739 5.54482 11.1901 5.42171 9.69931 5.90626C8.16043 6.40644 7.01049 7.59924 6.42957 8.55877C6.19249 9.04036 6.01628 9.76881 5.90904 10.6923C5.80169 11.6167 5.76963 12.6775 5.78815 13.7679C5.81965 15.6228 5.99663 17.5214 6.17667 18.9034ZM4.41906 10.5193C4.53502 9.52063 4.74036 8.57611 5.10214 7.85948L5.11423 7.83553L5.128 7.81251C5.83693 6.62717 7.25156 5.1246 9.23565 4.47972C11.2756 3.81668 13.7843 4.1038 16.5251 6.28725L16.5481 6.30559L16.5696 6.32567C17.4977 7.19218 18.6236 8.72469 18.9233 10.5336C19.2359 12.4204 18.6269 14.4901 16.2845 16.2526C11.8859 19.5621 7.34629 20.4319 5.53344 20.4419L4.88354 20.4454L4.78754 19.8027C4.57215 18.3605 4.32673 16.0525 4.28836 13.7934C4.26918 12.6637 4.30146 11.5319 4.41906 10.5193Z" fill="currentColor"/>
<path fill-rule="evenodd" clip-rule="evenodd" d="M21.0698 6.13326C11.9786 6.98326 9.57681 12.9914 9.45241 15.721L7.95397 15.6528C8.10877 12.2559 11.0166 5.56667 20.9302 4.63978L21.0698 6.13326Z" fill="currentColor"/>
</svg>
