<svg viewBox="0 0 24 24" fill="none" xmlns="http://www.w3.org/2000/svg">
<path fill-rule="evenodd" clip-rule="evenodd" d="M4.25 6C4.25 4.48122 5.48122 3.25 7 3.25H15C15.4142 3.25 15.75 3.58579 15.75 4C15.75 4.41421 15.4142 4.75 15 4.75H7C6.30964 4.75 5.75 5.30964 5.75 6V18C5.75 18.6904 6.30964 19.25 7 19.25H15C15.4142 19.25 15.75 19.5858 15.75 20C15.75 20.4142 15.4142 20.75 15 20.75H7C5.48122 20.75 4.25 19.5188 4.25 18V6ZM15.4697 8.46967C15.7626 8.17678 16.2374 8.17678 16.5303 8.46967L19.5303 11.4697C19.8232 11.7626 19.8232 12.2374 19.5303 12.5303L16.5303 15.5303C16.2374 15.8232 15.7626 15.8232 15.4697 15.5303C15.1768 15.2374 15.1768 14.7626 15.4697 14.4697L17.1893 12.75H9C8.58579 12.75 8.25 12.4142 8.25 12C8.25 11.5858 8.58579 11.25 9 11.25H17.1893L15.4697 9.53033C15.1768 9.23744 15.1768 8.76256 15.4697 8.46967Z" fill="currentColor"/>
</svg>
