<svg viewBox="0 0 24 24" fill="none" xmlns="http://www.w3.org/2000/svg">
<path fill-rule="evenodd" clip-rule="evenodd" d="M4.78138 5.75015L9.57092 11.1384C10.8637 12.5928 13.1363 12.5928 14.4291 11.1384L19.2186 5.75015C19.2124 5.75005 19.2062 5.75 19.2 5.75H4.8C4.79378 5.75 4.78757 5.75005 4.78138 5.75015ZM20.25 6.84765L15.6701 12L20.25 17.1524V6.84765ZM19.2186 18.2498L14.545 12.992C12.9984 13.9749 11.0016 13.9749 9.45501 12.992L4.78138 18.2498C4.78757 18.2499 4.79378 18.25 4.8 18.25H19.2C19.2062 18.25 19.2124 18.2499 19.2186 18.2498ZM3.75 17.1524L8.32987 12L3.75 6.84765V17.1524ZM2.25 6.75C2.25 5.35351 3.41584 4.25 4.8 4.25H19.2C20.5842 4.25 21.75 5.35351 21.75 6.75V17.25C21.75 18.6465 20.5842 19.75 19.2 19.75H4.8C3.41584 19.75 2.25 18.6465 2.25 17.25V6.75Z" fill="currentColor"/>
</svg>
