<svg viewBox="0 0 24 24" fill="none" xmlns="http://www.w3.org/2000/svg">
<path fill-rule="evenodd" clip-rule="evenodd" d="M12.0067 5.83606C8.59852 5.83606 5.83569 8.59889 5.83569 12.007C5.83569 15.4151 8.59852 18.178 12.0067 18.178C15.4148 18.178 18.1776 15.4151 18.1776 12.007C18.1776 8.59889 15.4148 5.83606 12.0067 5.83606ZM4.33569 12.007C4.33569 7.77046 7.7701 4.33606 12.0067 4.33606C16.2432 4.33606 19.6776 7.77046 19.6776 12.007C19.6776 16.2436 16.2432 19.678 12.0067 19.678C7.7701 19.678 4.33569 16.2436 4.33569 12.007Z" fill="currentColor"/>
<path fill-rule="evenodd" clip-rule="evenodd" d="M12.007 3C12.4212 3 12.757 3.33579 12.757 3.75V6.42187C12.757 6.83609 12.4212 7.17188 12.007 7.17188C11.5927 7.17188 11.257 6.83609 11.257 6.42187V3.75C11.257 3.33579 11.5927 3 12.007 3Z" fill="currentColor"/>
<path fill-rule="evenodd" clip-rule="evenodd" d="M12.007 16.842C12.4212 16.842 12.757 17.1778 12.757 17.592V20.2639C12.757 20.6781 12.4212 21.0139 12.007 21.0139C11.5927 21.0139 11.257 20.6781 11.257 20.2639V17.592C11.257 17.1778 11.5927 16.842 12.007 16.842Z" fill="currentColor"/>
<path fill-rule="evenodd" clip-rule="evenodd" d="M3 12.007C3 11.5927 3.33579 11.257 3.75 11.257H6.42187C6.83609 11.257 7.17188 11.5927 7.17188 12.007C7.17188 12.4212 6.83609 12.757 6.42187 12.757H3.75C3.33579 12.757 3 12.4212 3 12.007Z" fill="currentColor"/>
<path fill-rule="evenodd" clip-rule="evenodd" d="M16.842 12.007C16.842 11.5927 17.1778 11.257 17.592 11.257H20.2639C20.6781 11.257 21.0139 11.5927 21.0139 12.007C21.0139 12.4212 20.6781 12.757 20.2639 12.757H17.592C17.1778 12.757 16.842 12.4212 16.842 12.007Z" fill="currentColor"/>
<path fill-rule="evenodd" clip-rule="evenodd" d="M12.007 13.5627C12.8698 13.5627 13.5692 12.8633 13.5692 12.0005C13.5692 11.1377 12.8698 10.4382 12.007 10.4382C11.1441 10.4382 10.4447 11.1377 10.4447 12.0005C10.4447 12.8633 11.1441 13.5627 12.007 13.5627ZM12.007 15.0627C13.6982 15.0627 15.0692 13.6917 15.0692 12.0005C15.0692 10.3093 13.6982 8.93823 12.007 8.93823C10.3157 8.93823 8.9447 10.3093 8.9447 12.0005C8.9447 13.6917 10.3157 15.0627 12.007 15.0627Z" fill="currentColor"/>
</svg>
