<svg viewBox="0 0 24 24" fill="none" xmlns="http://www.w3.org/2000/svg">
<path fill-rule="evenodd" clip-rule="evenodd" d="M7.705 3.98604C8.84722 2.87238 10.3925 2.25 11.9998 2.25C13.6072 2.25 15.1524 2.87238 16.2946 3.98604C17.4375 5.10034 18.0831 6.61575 18.0831 8.2C18.0831 12.0703 19.2096 14.492 19.9331 15.6511C20.2151 16.1029 20.1667 16.6238 19.9808 16.9984C19.7935 17.3755 19.3893 17.75 18.8135 17.75H16.4684C16.033 18.5715 15.453 19.275 14.7579 19.7964C13.9375 20.4117 12.986 20.75 11.9998 20.75C11.0137 20.75 10.0622 20.4117 9.24178 19.7964C8.54661 19.275 7.96666 18.5715 7.53123 17.75H5.18616C4.61035 17.75 4.20608 17.3755 4.01888 16.9984C3.8329 16.6238 3.78448 16.1029 4.06649 15.6511C4.79 14.492 5.91648 12.0703 5.91648 8.2C5.91648 6.61575 6.56214 5.10034 7.705 3.98604ZM8.0161 16.25C8.00498 16.2498 7.99385 16.2498 7.9827 16.25H5.45787C6.30403 14.825 7.41648 12.1893 7.41648 8.2C7.41648 7.026 7.89463 5.89613 8.75215 5.06004C9.61032 4.22333 10.7782 3.75 11.9998 3.75C13.2214 3.75 14.3893 4.22333 15.2475 5.06004C16.105 5.89613 16.5831 7.026 16.5831 8.2C16.5831 12.1893 17.6956 14.825 18.5418 16.25H16.0169C16.0058 16.2498 15.9946 16.2498 15.9835 16.25H8.0161ZM9.30225 17.75C9.5548 18.0841 9.83785 18.3684 10.1418 18.5964C10.7254 19.0341 11.3657 19.25 11.9998 19.25C12.6339 19.25 13.2742 19.0341 13.8579 18.5964C14.1618 18.3684 14.4448 18.0841 14.6974 17.75H9.30225Z" fill="currentColor"/>
</svg>
