<svg viewBox="0 0 24 24" fill="none" xmlns="http://www.w3.org/2000/svg">
<path fill-rule="evenodd" clip-rule="evenodd" d="M2.96826 4.68555C2.96826 4.27133 3.30405 3.93555 3.71826 3.93555H20.2817C20.6959 3.93555 21.0317 4.27133 21.0317 4.68555V7.58227C21.0411 7.62975 21.0461 7.67885 21.0461 7.7291V20.3283C21.0461 20.7425 20.7103 21.0783 20.2961 21.0783H13.3575C12.9433 21.0783 12.6075 20.7425 12.6075 20.3283V14.7347C12.6075 14.4687 12.3734 14.196 12.0072 14.196C11.641 14.196 11.4068 14.4687 11.4068 14.7347V20.3283C11.4068 20.7425 11.071 21.0783 10.6568 21.0783H3.71826C3.30405 21.0783 2.96826 20.7425 2.96826 20.3283V4.68555ZM4.46826 13.7907C6.4856 13.4504 8.05964 11.7621 8.05964 9.67587C8.05964 9.26166 7.72386 8.92587 7.30964 8.92587C6.89543 8.92587 6.55964 9.26166 6.55964 9.67587C6.55964 10.8856 5.69086 11.9462 4.46826 12.2596V8.4791H11.2572V10.426C11.2572 10.8402 11.593 11.176 12.0072 11.176C12.4214 11.176 12.7572 10.8402 12.7572 10.426V8.4791H19.5461V12.2633C18.3159 11.9545 17.4403 10.8903 17.4403 9.67587C17.4403 9.26166 17.1045 8.92587 16.6903 8.92587C16.2761 8.92587 15.9403 9.26166 15.9403 9.67587C15.9403 11.7671 17.5218 13.4584 19.5461 13.7931V19.5783H14.1075V14.7347C14.1075 13.575 13.135 12.696 12.0072 12.696C10.8794 12.696 9.90681 13.575 9.90681 14.7347V19.5783H4.46826V13.7907ZM19.5317 6.9791H12.7572V5.43555H19.5317V6.9791ZM11.2572 5.43555H4.46826V6.9791H11.2572V5.43555Z" fill="currentColor"/>
</svg>
