<svg viewBox="0 0 24 24" fill="none" xmlns="http://www.w3.org/2000/svg">
<path fill-rule="evenodd" clip-rule="evenodd" d="M3.80981 12.0002C5.20429 15.2827 8.24471 17.5502 12 17.5502C15.7553 17.5502 18.7957 15.2827 20.1902 12.0002C18.7957 8.71767 15.7553 6.4502 12 6.4502C8.24471 6.4502 5.20429 8.71767 3.80981 12.0002ZM2.30138 11.7274C3.84249 7.78117 7.46333 4.9502 12 4.9502C16.5367 4.9502 20.1575 7.78117 21.6986 11.7274C21.7671 11.9028 21.7671 12.0976 21.6986 12.273C20.1575 16.2192 16.5367 19.0502 12 19.0502C7.46333 19.0502 3.84249 16.2192 2.30138 12.273C2.23287 12.0976 2.23287 11.9028 2.30138 11.7274ZM12 10.0502C10.923 10.0502 10.05 10.9232 10.05 12.0002C10.05 13.0772 10.923 13.9502 12 13.9502C13.077 13.9502 13.95 13.0772 13.95 12.0002C13.95 10.9232 13.077 10.0502 12 10.0502ZM8.55 12.0002C8.55 10.0948 10.0946 8.5502 12 8.5502C13.9054 8.5502 15.45 10.0948 15.45 12.0002C15.45 13.9056 13.9054 15.4502 12 15.4502C10.0946 15.4502 8.55 13.9056 8.55 12.0002Z" fill="currentColor"/>
</svg>
