<svg viewBox="0 0 24 24" fill="none" xmlns="http://www.w3.org/2000/svg">
<path fill-rule="evenodd" clip-rule="evenodd" d="M12 6.65039C11.6405 6.65039 11.2882 6.67109 10.9441 6.71122C10.5326 6.75918 10.1602 6.46453 10.1123 6.05311C10.0643 5.64168 10.3589 5.26927 10.7704 5.22131C11.1726 5.17441 11.5828 5.15039 12 5.15039C16.5367 5.15039 20.1575 7.98136 21.6986 11.9276C21.7671 12.103 21.7671 12.2978 21.6986 12.4732C21.3188 13.4458 20.8131 14.3506 20.198 15.1623C19.9478 15.4924 19.4773 15.5572 19.1472 15.307C18.8171 15.0568 18.7523 14.5864 19.0025 14.2563C19.4751 13.6326 19.8749 12.9424 20.1902 12.2004C18.7957 8.91786 15.7553 6.65039 12 6.65039ZM7.70791 6.87727C7.92364 7.23088 7.81187 7.69241 7.45827 7.90814C5.8504 8.88908 4.5792 10.3897 3.80981 12.2004C5.2043 15.4829 8.24471 17.7504 12 17.7504C13.6946 17.7504 15.234 17.2905 16.5419 16.4925C16.8955 16.2768 17.3571 16.3885 17.5728 16.7421C17.7885 17.0957 17.6768 17.5573 17.3232 17.773C15.7824 18.7131 13.9731 19.2504 12 19.2504C7.46333 19.2504 3.84249 16.4194 2.30138 12.4732C2.23287 12.2978 2.23287 12.103 2.30138 11.9276C3.16858 9.70699 4.69287 7.83815 6.67705 6.62763C7.03065 6.4119 7.49219 6.52367 7.70791 6.87727ZM10.6212 9.76081C10.9141 10.0537 10.9141 10.5286 10.6212 10.8215C10.2675 11.1752 10.05 11.6617 10.05 12.2004C10.05 13.2773 10.923 14.1504 12 14.1504C12.5387 14.1504 13.0252 13.9329 13.3789 13.5792C13.6718 13.2863 14.1467 13.2863 14.4396 13.5791C14.7325 13.872 14.7325 14.3469 14.4396 14.6398C13.8161 15.2634 12.9525 15.6504 12 15.6504C10.0946 15.6504 8.55 14.1058 8.55 12.2004C8.55 11.2479 8.93702 10.3843 9.56059 9.76076C9.85349 9.46788 10.3284 9.46791 10.6212 9.76081Z" fill="currentColor"/>
<path fill-rule="evenodd" clip-rule="evenodd" d="M4.26947 4.46967C4.56237 4.17678 5.03724 4.17678 5.33013 4.46967L19.7301 18.8697C20.023 19.1626 20.023 19.6374 19.7301 19.9303C19.4372 20.2232 18.9624 20.2232 18.6695 19.9303L4.26947 5.53033C3.97658 5.23744 3.97658 4.76256 4.26947 4.46967Z" fill="currentColor"/>
</svg>
