<svg viewBox="0 0 24 24" fill="none" xmlns="http://www.w3.org/2000/svg">
<path fill-rule="evenodd" clip-rule="evenodd" d="M8.88663 5.66479C8.88663 5.25058 9.22242 4.91479 9.63663 4.91479H22.0726C22.4868 4.91479 22.8226 5.25058 22.8226 5.66479V14.3467C22.8226 14.7609 22.4868 15.0967 22.0726 15.0967H12.192L9.94522 17.3017C8.7887 18.4367 7.20463 19.0853 5.57259 19.0853H2.75486V17.5853H5.57259C6.81248 17.5853 8.01905 17.0904 8.89454 16.2311L12.1255 13.0602C12.3548 12.8407 12.3649 12.4778 12.1187 12.2362L12.1119 12.2295C11.8805 11.9966 11.4861 11.987 11.2322 12.2362C11.2034 12.2644 11.1723 12.2903 11.1393 12.3136L6.84501 15.3449L5.97998 14.1195L8.88663 12.0677V9.8317H8.14648C7.14722 9.8317 6.18543 10.2225 5.48833 10.9066L1.74941 14.5761L0.69873 13.5056L4.43765 9.83607C5.42034 8.87162 6.76151 8.3317 8.14648 8.3317H8.88663V5.66479ZM10.3866 10.9881C11.218 10.3558 12.4123 10.4069 13.1727 11.1689C13.8392 11.8258 13.9788 12.8108 13.5731 13.5967H21.3226V9.77852H10.3866V10.9881ZM10.3866 8.27852H21.3226V6.41479H10.3866V8.27852Z" fill="currentColor"/>
</svg>
