<svg viewBox="0 0 24 24" fill="none" xmlns="http://www.w3.org/2000/svg">
<path fill-rule="evenodd" clip-rule="evenodd" d="M16.645 5.18307L15.4748 6.35342L17.6457 8.52438L18.8157 7.35427C19.3957 6.75671 19.3948 5.81253 18.8129 5.21612C18.2181 4.60696 17.2518 4.59379 16.645 5.18307ZM16.5851 9.58508L14.4141 7.41412L5.88301 15.9458L5.06891 18.9311L8.05383 18.1169L16.5851 9.58508ZM15.5942 4.1126C16.7973 2.93814 18.7155 2.96896 19.8864 4.16847C21.0377 5.34853 21.0379 7.22471 19.8865 8.40476L19.8801 8.41135L8.97369 19.3184C8.8814 19.4107 8.76661 19.4773 8.64069 19.5117L4.19737 20.7236C3.93771 20.7944 3.66001 20.7207 3.4697 20.5303C3.27938 20.34 3.20563 20.0623 3.27644 19.8027L4.48826 15.359C4.52259 15.2331 4.5892 15.1184 4.68148 15.0261L15.5942 4.1126Z" fill="currentColor"/>
</svg>
