<svg viewBox="0 0 24 24" fill="none" xmlns="http://www.w3.org/2000/svg">
<path fill-rule="evenodd" clip-rule="evenodd" d="M6.99997 3.75C5.14572 3.75 3.81715 5.23321 4.17065 6.80413C5.62707 13.2762 10.7238 18.3729 17.1958 19.8293C18.7668 20.1828 20.25 18.8543 20.25 17V15.25C20.25 15.127 20.1402 14.9714 19.9355 14.9534C18.9444 14.8662 17.9875 14.6585 17.0798 14.3448L15.7099 15.7147C15.485 15.9396 15.1427 15.9981 14.8559 15.8609C11.9215 14.4566 9.54335 12.0784 8.13912 9.14413C8.00183 8.85723 8.06042 8.51494 8.28531 8.29004L9.65513 6.92023C9.34151 6.01247 9.13377 5.05555 9.04659 4.06449C9.02858 3.85977 8.87292 3.75 8.74997 3.75H6.99997ZM2.70725 7.13345C2.09076 4.39388 4.43595 2.25 6.99997 2.25H8.74997C9.73159 2.25 10.462 3.03744 10.5408 3.93304C10.6303 4.95001 10.8646 5.92476 11.2229 6.83699C11.332 7.11466 11.2661 7.43057 11.0552 7.64151L9.72949 8.96719C10.9256 11.2214 12.7786 13.0744 15.0328 14.2705L16.3585 12.9448C16.5694 12.7339 16.8853 12.668 17.163 12.7771C18.0752 13.1354 19.05 13.3697 20.0669 13.4592C20.9625 13.5379 21.75 14.2684 21.75 15.25V17C21.75 19.564 19.6061 21.9092 16.8665 21.2927C9.8291 19.7091 4.29089 14.1709 2.70725 7.13345Z" fill="currentColor"/>
</svg>
