<svg viewBox="0 0 24 24" fill="none" xmlns="http://www.w3.org/2000/svg">
<path fill-rule="evenodd" clip-rule="evenodd" d="M13.5701 16.738C15.1092 14.777 16.5 12.2284 16.5 9.5C16.5 7.73304 15.9073 6.52606 15.075 5.75272C14.2249 4.96291 12.9882 4.5 11.5 4.5C10.0118 4.5 8.77509 4.96291 7.92501 5.75272C7.09266 6.52606 6.5 7.73304 6.5 9.5C6.5 12.2061 7.88953 14.7545 9.43108 16.7236C10.1817 17.6823 10.935 18.461 11.5032 19.0014C12.0703 18.4648 12.8215 17.6916 13.5701 16.738ZM11.5 21C11.5 21 18 15.9376 18 9.5C18 5.24353 15.0893 3 11.5 3C7.91071 3 5 5.24353 5 9.5C5 15.8953 11.5 21 11.5 21Z" fill="currentColor"/>
<path fill-rule="evenodd" clip-rule="evenodd" d="M11.5 10.5C12.0523 10.5 12.5 10.0523 12.5 9.5C12.5 8.94772 12.0523 8.5 11.5 8.5C10.9477 8.5 10.5 8.94772 10.5 9.5C10.5 10.0523 10.9477 10.5 11.5 10.5ZM11.5 12C12.8807 12 14 10.8807 14 9.5C14 8.11929 12.8807 7 11.5 7C10.1193 7 9 8.11929 9 9.5C9 10.8807 10.1193 12 11.5 12Z" fill="currentColor"/>
</svg>
