<svg viewBox="0 0 24 24" fill="none" xmlns="http://www.w3.org/2000/svg">
<path fill-rule="evenodd" clip-rule="evenodd" d="M12 5.7501C8.54822 5.7501 5.75 8.54833 5.75 12.0001C5.75 13.7491 6.46742 15.3292 7.62594 16.4644L6.57609 17.5358C5.14152 16.13 4.25 14.1685 4.25 12.0001C4.25 7.7199 7.71979 4.25011 12 4.25011V5.7501ZM18.25 12.0001C18.25 10.2969 17.5697 8.75408 16.4643 7.62605L17.5357 6.5762C18.9047 7.97324 19.75 9.8887 19.75 12.0001C19.75 16.2803 16.2802 19.7501 12 19.7501V18.2501C15.4518 18.2501 18.25 15.4519 18.25 12.0001Z" fill="currentColor"/>
<path fill-rule="evenodd" clip-rule="evenodd" d="M10.9414 5.01574L9.14145 3.97653L9.89145 2.67749L12.9905 4.4667L11.2012 7.56571L9.90221 6.81571L10.9414 5.01574Z" fill="currentColor"/>
<path fill-rule="evenodd" clip-rule="evenodd" d="M13.0586 18.9845L14.8586 20.0237L14.1086 21.3227L11.0095 19.5335L12.7988 16.4345L14.0978 17.1845L13.0586 18.9845Z" fill="currentColor"/>
</svg>
