<svg viewBox="0 0 24 25" fill="none" xmlns="http://www.w3.org/2000/svg">
<path fill-rule="evenodd" clip-rule="evenodd" d="M9.79161 5.05646C10.0835 5.35036 10.0819 5.82523 9.78796 6.11711L6.31959 9.56167H15.4503C18.0968 9.56167 20.2501 11.6845 20.2501 14.3233C20.2501 16.9621 18.0968 19.085 15.4503 19.085H6.87365C6.45944 19.085 6.12365 18.7492 6.12365 18.335C6.12365 17.9207 6.45944 17.585 6.87365 17.585H15.4503C17.2818 17.585 18.7501 16.1204 18.7501 14.3233C18.7501 12.5263 17.2818 11.0617 15.4503 11.0617H6.32291L9.78728 14.4934C10.0816 14.7849 10.0838 15.2598 9.79229 15.5541C9.50078 15.8484 9.02592 15.8506 8.73164 15.5591L3.43506 10.3124L8.73096 5.05281C9.02486 4.76092 9.49973 4.76256 9.79161 5.05646Z" fill="currentColor"/>
</svg>
