<svg viewBox="0 0 18 18" fill="none" xmlns="http://www.w3.org/2000/svg">
<path d="M8.68931 2L10.7919 6.23053L15.3786 6.91371L12.0914 10.2299L12.8945 15L8.68931 12.7017L4.48412 15L5.28722 10.2299L2.00002 6.91371L6.58672 6.23053L8.68931 2Z" fill="currentColor"/>
<path fill-rule="evenodd" clip-rule="evenodd" d="M8.68931 1.25C8.97404 1.25 9.23421 1.41123 9.36093 1.6662L11.2894 5.54636L15.4891 6.17189C15.7687 6.21354 16.0011 6.40885 16.0903 6.6771C16.1795 6.94534 16.1103 7.24094 15.9113 7.4417L12.8949 10.4847L13.6341 14.8755C13.6818 15.1587 13.5635 15.4444 13.3295 15.611C13.0955 15.7776 12.7869 15.7959 12.5348 15.6581L8.68931 13.5564L4.84381 15.6581C4.59175 15.7959 4.28314 15.7776 4.04913 15.611C3.81513 15.4444 3.69684 15.1587 3.74453 14.8755L4.48377 10.4847L1.46737 7.4417C1.26836 7.24094 1.19914 6.94534 1.28832 6.6771C1.3775 6.40885 1.60993 6.21354 1.88953 6.17189L6.08923 5.54636L8.01769 1.6662C8.14441 1.41123 8.40458 1.25 8.68931 1.25ZM8.68931 3.68514L7.25834 6.56433C7.14922 6.78387 6.9397 6.93623 6.69721 6.97235L3.57514 7.43737L5.81988 9.70192C5.98988 9.87343 6.06691 10.1163 6.02681 10.3544L5.48024 13.6009L8.32962 12.0436C8.55377 11.921 8.82485 11.921 9.049 12.0436L11.8984 13.6009L11.3518 10.3544C11.3117 10.1163 11.3887 9.87343 11.5587 9.70192L13.8035 7.43737L10.6814 6.97235C10.4389 6.93623 10.2294 6.78387 10.1203 6.56433L8.68931 3.68514Z" fill="currentColor"/>
</svg>
