<svg viewBox="0 0 18 18" fill="none" xmlns="http://www.w3.org/2000/svg">
<path fill-rule="evenodd" clip-rule="evenodd" d="M4.04913 15.611C4.28314 15.7776 4.59175 15.7959 4.84381 15.6581L8.68931 13.5564L12.5348 15.6581C12.7869 15.7959 13.0955 15.7776 13.3295 15.611C13.5635 15.4444 13.6818 15.1587 13.6341 14.8755L12.8949 10.4847L15.9113 7.4417C16.1103 7.24094 16.1795 6.94534 16.0903 6.6771C16.0011 6.40885 15.7687 6.21354 15.4891 6.17189L11.2894 5.54636L9.36093 1.6662C9.23421 1.41123 8.97404 1.25 8.68931 1.25C8.40458 1.25 8.14441 1.41123 8.01769 1.6662L6.08923 5.54636L1.88953 6.17189C1.60993 6.21354 1.3775 6.40885 1.28832 6.6771C1.19914 6.94534 1.26836 7.24094 1.46737 7.4417L4.48377 10.4847L3.74453 14.8755C3.69684 15.1587 3.81513 15.4444 4.04913 15.611ZM5.48024 13.6009L6.02681 10.3544C6.06691 10.1163 5.98988 9.87343 5.81988 9.70192L3.57514 7.43737L6.69721 6.97235C6.9397 6.93623 7.14922 6.78387 7.25834 6.56433L8.68931 3.68514L10.1203 6.56433C10.2294 6.78387 10.4389 6.93623 10.6814 6.97235L13.8035 7.43737L11.5587 9.70192C11.3887 9.87343 11.3117 10.1163 11.3518 10.3544L11.8984 13.6009L9.049 12.0436C8.82485 11.921 8.55377 11.921 8.32962 12.0436L5.48024 13.6009Z" fill="currentColor"/>
<path d="M4.48412 15L8.68931 12.7017V2L6.58671 6.23053L2.00002 6.91371L5.28722 10.2299L4.48412 15Z" fill="currentColor"/>
</svg>
