<svg viewBox="0 0 24 24" fill="none" xmlns="http://www.w3.org/2000/svg">
<path fill-rule="evenodd" clip-rule="evenodd" d="M4.75 11C4.75 7.25013 8.07052 4.25 11.5 4.25C14.9295 4.25 18.25 7.25013 18.25 11C18.25 12.7039 17.5644 14.253 16.4946 15.4361C16.5068 15.4469 16.5187 15.458 16.5303 15.4697L19.5303 18.4697C19.8232 18.7626 19.8232 19.2374 19.5303 19.5303C19.2374 19.8232 18.7626 19.8232 18.4697 19.5303L15.4697 16.5303C15.4389 16.4996 15.4114 16.4668 15.3871 16.4325C14.2498 17.2616 12.8838 17.75 11.5 17.75C8.07052 17.75 4.75 14.7499 4.75 11ZM11.5 5.75C8.85435 5.75 6.25 8.12246 6.25 11C6.25 13.8775 8.85435 16.25 11.5 16.25C14.1456 16.25 16.75 13.8775 16.75 11C16.75 8.12246 14.1457 5.75 11.5 5.75Z" fill="currentColor"/>
</svg>
