<svg viewBox="0 0 24 24" fill="none" xmlns="http://www.w3.org/2000/svg">
<path fill-rule="evenodd" clip-rule="evenodd" d="M11.5913 3.42438C11.8816 3.14402 12.3417 3.14365 12.6324 3.42354L17.018 7.64526C17.3164 7.93253 17.3254 8.40731 17.0381 8.70573C16.7509 9.00414 16.2761 9.01318 15.9777 8.72591L12.8623 5.72689L12.8623 15.8824C12.8623 16.2966 12.5265 16.6324 12.1123 16.6324C11.6981 16.6324 11.3623 16.2966 11.3623 15.8824L11.3623 5.73082L8.2618 8.72508C7.96384 9.01282 7.48904 9.00455 7.2013 8.70659C6.91355 8.40864 6.92183 7.93384 7.21978 7.6461L11.5913 3.42438ZM4.95264 11.4435C4.95264 11.0293 5.28842 10.6935 5.70264 10.6935H9.42754C9.84175 10.6935 10.1775 11.0293 10.1775 11.4435C10.1775 11.8577 9.84175 12.1935 9.42754 12.1935H6.45264V19.5713H17.547V12.1935H14.6705C14.2563 12.1935 13.9205 11.8577 13.9205 11.4435C13.9205 11.0293 14.2563 10.6935 14.6705 10.6935H18.297C18.7112 10.6935 19.047 11.0293 19.047 11.4435V20.3213C19.047 20.7355 18.7112 21.0713 18.297 21.0713H5.70264C5.28842 21.0713 4.95264 20.7355 4.95264 20.3213V11.4435Z" fill="currentColor"/>
</svg>
