<svg viewBox="0 0 24 24" fill="none" xmlns="http://www.w3.org/2000/svg">
<path d="M20.68 5.91C20.53 5.77 20.33 5.69 20.12 5.71C18.76 5.79 14.88 5.67 13.35 4.22C12.92 3.81 12.71 3.33 12.71 2.75C12.71 2.34 12.37 2 11.96 2C11.55 2 11.21 2.34 11.21 2.75C11.21 3.33 11 3.81 10.57 4.22C9.03 5.67 5.16 5.79 3.8 5.71C3.6 5.7 3.39 5.77 3.24 5.91C3.09 6.05 3 6.25 3 6.45C3 15.17 9.01 22.69 11.96 22.69C14.91 22.69 20.92 15.17 20.92 6.45C20.92 6.24 20.83 6.05 20.68 5.91ZM19.4 7.22C19.33 8.85 19.04 10.38 18.63 11.8H12.71V5.6C14.61 7.02 17.88 7.22 19.4 7.22ZM11.21 5.6V11.8H5.29C4.87 10.38 4.58 8.85 4.52 7.22C6.04 7.22 9.31 7.03 11.21 5.6ZM5.8 13.3H11.21V20.92C9.78 20.06 7.31 17.25 5.8 13.3ZM12.71 20.92V13.3H18.12C16.61 17.25 14.14 20.07 12.71 20.92Z" fill="currentColor"/>
</svg>
