<svg viewBox="0 0 24 24" fill="none" xmlns="http://www.w3.org/2000/svg">
<path fill-rule="evenodd" clip-rule="evenodd" d="M2.25 4C2.25 3.58579 2.58579 3.25 3 3.25H8.4C9.55071 3.25 10.6561 3.70138 11.4726 4.50778C11.6696 4.70236 11.8459 4.91377 12 5.13865C12.1541 4.91377 12.3304 4.70236 12.5274 4.50778C13.3439 3.70139 14.4493 3.25 15.6 3.25H21C21.4142 3.25 21.75 3.58579 21.75 4V17.3333C21.75 17.7475 21.4142 18.0833 21 18.0833H14.7C14.1798 18.0833 13.6828 18.2875 13.3178 18.648C12.9532 19.0082 12.75 19.4947 12.75 20C12.75 20.4142 12.4142 20.75 12 20.75C11.5858 20.75 11.25 20.4142 11.25 20C11.25 19.4947 11.0468 19.0082 10.6822 18.648C10.3172 18.2875 9.82016 18.0833 9.3 18.0833H3C2.58579 18.0833 2.25 17.7475 2.25 17.3333V4ZM12 17.873C12.0818 17.7712 12.1698 17.6736 12.2638 17.5808C12.9115 16.9411 13.788 16.5833 14.7 16.5833H20.25V4.75H15.6C14.8411 4.75 14.1152 5.04782 13.5814 5.57501C13.048 6.10189 12.75 6.8145 12.75 7.55556V14.6667C12.75 15.0809 12.4142 15.4167 12 15.4167C11.5858 15.4167 11.25 15.0809 11.25 14.6667V7.55556C11.25 6.8145 10.952 6.10189 10.4186 5.57501C9.88478 5.04782 9.15885 4.75 8.4 4.75H3.75V16.5833H9.3C10.212 16.5833 11.0885 16.9411 11.7362 17.5808C11.8302 17.6736 11.9182 17.7712 12 17.873Z" fill="currentColor"/>
</svg>
