<svg viewBox="0 0 24 24" fill="none" xmlns="http://www.w3.org/2000/svg">
<path fill-rule="evenodd" clip-rule="evenodd" d="M7.58899 6.0974C7.58899 4.44784 8.92252 3.1001 10.5863 3.1001H14.2196C15.8692 3.1001 17.2169 4.43363 17.2169 6.0974V6.49585H20.021C20.4352 6.49585 20.771 6.83164 20.771 7.24585C20.771 7.66006 20.4352 7.99585 20.021 7.99585H19.4259C19.4658 8.19341 19.4738 8.40148 19.4447 8.61398L17.9542 19.4919C17.8287 20.408 17.0461 21.0907 16.1214 21.0907H8.68499C7.76031 21.0907 6.97764 20.408 6.85212 19.4919L5.36165 8.61398C5.33254 8.40148 5.34057 8.19341 5.38046 7.99585H4.2998C3.88559 7.99585 3.5498 7.66006 3.5498 7.24585C3.5498 6.83164 3.88559 6.49585 4.2998 6.49585H7.58899V6.0974ZM15.7169 6.49585H9.08899V6.0974C9.08899 5.27196 9.75525 4.6001 10.5863 4.6001H14.2196C15.045 4.6001 15.7169 5.26636 15.7169 6.0974V6.49585ZM7.19453 8.01284C6.98234 8.01284 6.81897 8.20013 6.84777 8.41035L8.33823 19.2883C8.36198 19.4616 8.51005 19.5907 8.68499 19.5907H16.1214C16.2963 19.5907 16.4444 19.4616 16.4681 19.2883L17.9586 8.41035C17.9874 8.20013 17.824 8.01284 17.6118 8.01284H7.19453ZM10.8142 8.8721C11.2285 8.8721 11.5642 9.20789 11.5642 9.6221V17.75C11.5642 18.1642 11.2285 18.5 10.8142 18.5C10.4 18.5 10.0642 18.1642 10.0642 17.75V9.6221C10.0642 9.20789 10.4 8.8721 10.8142 8.8721ZM13.9922 8.8721C14.4064 8.8721 14.7422 9.20789 14.7422 9.6221V17.75C14.7422 18.1642 14.4064 18.5 13.9922 18.5C13.578 18.5 13.2422 18.1642 13.2422 17.75V9.6221C13.2422 9.20789 13.578 8.8721 13.9922 8.8721Z" fill="currentColor"/>
</svg>
