<svg viewBox="0 0 24 24" fill="none" xmlns="http://www.w3.org/2000/svg">
<path fill-rule="evenodd" clip-rule="evenodd" d="M2.25 7C2.25 5.48122 3.48122 4.25 5 4.25H19C20.5188 4.25 21.75 5.48122 21.75 7V17C21.75 18.5188 20.5188 19.75 19 19.75H5C3.48122 19.75 2.25 18.5188 2.25 17V7ZM5 5.75C4.30964 5.75 3.75 6.30964 3.75 7V17C3.75 17.6904 4.30964 18.25 5 18.25H5.29268C5.26504 18.1718 5.25 18.0877 5.25 18C5.25 17.1189 5.78567 16.4131 6.46265 15.9617C7.14488 15.5069 8.04416 15.25 9 15.25C9.95584 15.25 10.8551 15.5069 11.5373 15.9617C12.2143 16.4131 12.75 17.1189 12.75 18C12.75 18.0877 12.735 18.1718 12.7073 18.25H19C19.6904 18.25 20.25 17.6904 20.25 17V7C20.25 6.30964 19.6904 5.75 19 5.75H5ZM11.2927 18.25C11.265 18.1718 11.25 18.0877 11.25 18C11.25 17.7765 11.1141 17.4824 10.7053 17.2098C10.3017 16.9408 9.70101 16.75 9 16.75C8.29899 16.75 7.69827 16.9408 7.2947 17.2098C6.8859 17.4824 6.75 17.7765 6.75 18C6.75 18.0877 6.73496 18.1718 6.70732 18.25H11.2927ZM9 9.75C8.30964 9.75 7.75 10.3096 7.75 11C7.75 11.6904 8.30964 12.25 9 12.25C9.69036 12.25 10.25 11.6904 10.25 11C10.25 10.3096 9.69036 9.75 9 9.75ZM6.25 11C6.25 9.48122 7.48122 8.25 9 8.25C10.5188 8.25 11.75 9.48122 11.75 11C11.75 12.5188 10.5188 13.75 9 13.75C7.48122 13.75 6.25 12.5188 6.25 11ZM14.25 11C14.25 10.5858 14.5858 10.25 15 10.25H18C18.4142 10.25 18.75 10.5858 18.75 11C18.75 11.4142 18.4142 11.75 18 11.75H15C14.5858 11.75 14.25 11.4142 14.25 11ZM14.25 14C14.25 13.5858 14.5858 13.25 15 13.25H18C18.4142 13.25 18.75 13.5858 18.75 14C18.75 14.4142 18.4142 14.75 18 14.75H15C14.5858 14.75 14.25 14.4142 14.25 14Z" fill="currentColor"/>
</svg>
