<svg viewBox="0 0 24 24" fill="none" xmlns="http://www.w3.org/2000/svg">
<path fill-rule="evenodd" clip-rule="evenodd" d="M2.25002 12C2.25002 6.61522 6.61524 2.25 12 2.25C17.3848 2.25 21.75 6.61522 21.75 12C21.75 17.3848 17.3848 21.75 12 21.75C10.2118 21.75 8.53426 21.268 7.09231 20.4265L3.23719 21.7115C2.96769 21.8013 2.67056 21.7312 2.46969 21.5303C2.26882 21.3295 2.19867 21.0323 2.28851 20.7628L3.57355 16.9077C2.73207 15.4658 2.25002 13.7882 2.25002 12ZM12 3.75C7.44367 3.75 3.75002 7.44365 3.75002 12C3.75002 13.6246 4.21885 15.1374 5.0283 16.4132C5.1491 16.6036 5.17783 16.8383 5.10652 17.0522L4.18587 19.8141L6.94782 18.8935C7.16174 18.8222 7.39639 18.8509 7.58679 18.9717C8.86259 19.7812 10.3754 20.25 12 20.25C16.5564 20.25 20.25 16.5563 20.25 12C20.25 7.44365 16.5564 3.75 12 3.75Z" fill="currentColor"/>
<path d="M16.3124 13.8596C16.0724 13.7396 14.9124 13.1696 14.6924 13.0896C14.4724 13.0096 14.3224 12.9696 14.1624 13.2096C14.0024 13.4496 13.5524 13.9796 13.4124 14.1396C13.2724 14.2996 13.1324 14.3196 12.9024 14.1996C12.2024 13.9196 11.5624 13.5296 11.0024 13.0296C10.4824 12.5496 10.0424 11.9996 9.6924 11.3896C9.5524 11.1496 9.6824 11.0296 9.7924 10.9096C9.9024 10.7996 10.0324 10.6296 10.1424 10.4996C10.2424 10.3796 10.3224 10.2496 10.3824 10.1096C10.4124 10.0396 10.4324 9.96955 10.4224 9.89955C10.4224 9.82955 10.4024 9.75955 10.3624 9.69955C10.3024 9.57955 9.8324 8.41955 9.6324 7.94955C9.4424 7.48955 9.2424 7.54955 9.1024 7.53955C8.9624 7.53955 8.8024 7.53955 8.6524 7.53955C8.5324 7.53955 8.4124 7.56955 8.3024 7.61955C8.1924 7.66955 8.0924 7.73955 8.0224 7.82955C7.7524 8.07955 7.5424 8.38955 7.4024 8.72955C7.2624 9.06955 7.1924 9.42955 7.1924 9.79955C7.1924 10.9596 8.0424 12.0896 8.1624 12.2496C8.2824 12.4096 9.8324 14.7996 12.2024 15.8196C12.6424 16.0096 13.0924 16.1796 13.5524 16.3196C14.0324 16.4696 14.5424 16.4996 15.0424 16.4096C15.4924 16.3396 16.4424 15.8396 16.6424 15.2896C16.7924 14.9396 16.8424 14.5496 16.7824 14.1696C16.7224 14.0696 16.5624 14.0096 16.3324 13.8896" fill="currentColor"/>
</svg>
